<?xml version="1.0" encoding="utf-8"?>
<!-- Generator: Adobe Illustrator 21.0.2, SVG Export Plug-In . SVG Version: 6.00 Build 0)  -->
<svg version="1.1" id="Layer_1" xmlns="http://www.w3.org/2000/svg" xmlns:xlink="http://www.w3.org/1999/xlink" x="0px" y="0px"
	 viewBox="0 0 242 242" style="enable-background:new 0 0 242 242;" xml:space="preserve">
<style type="text/css">
	.st0{fill:#224760;}
	.st1{fill:#F0592E;}
</style>
<g>
	<rect x="-0.5" y="-0.4" class="st0" width="243" height="243"/>
</g>
<g>
	<g>
		<path class="st1" d="M134.9,50.2l-14.2,0.7c-4.8,0.2-9.8,0.5-14.7,0.7l-1.5,0.1l-0.1-1.6c-0.3-8-0.6-16.1-0.8-24.1l-0.1-2.1
			l2.5-0.3c2.4-0.3,4.8-0.4,7.2-0.6l3.6-0.1l3.6-0.1c4.8-0.1,9.6,0.1,14.4,0.3l3,0.1l-0.1,2.8c-0.1,2.2-0.2,4.4-0.4,6.5l-0.3,3.2
			l-0.4,3.1c-0.2,2.1-0.5,4.1-0.8,6C135.5,46.6,135.2,48.4,134.9,50.2z M134.5,49.8l-0.9-6.5c-0.3-2.1-0.6-4.1-0.8-6.1l-0.4-2.9
			l-0.3-2.8c-0.2-1.9-0.3-3.7-0.4-5.5l2.9,2.9c-4.8,0.2-9.6,0.3-14.4,0.3l-3.6-0.1L113,29c-2.4-0.1-4.8-0.3-7.2-0.6l2.4-2.4
			c-0.2,8-0.5,16.1-0.8,24.1l-1.6-1.6c4.6,0.2,9.2,0.4,14,0.7L134.5,49.8z"/>
	</g>
	<g>
		<path class="st1" d="M146.4,179.4l-65.9,1.3H79v-1.5c-0.3-21.2-0.7-42.3-0.9-63.5v-2.3l2.4-0.1c5.5-0.3,10.9-0.4,16.4-0.6
			c5.5-0.1,10.9-0.2,16.4-0.2c5.5-0.1,10.9,0,16.4,0l16.4,0.2h3l-0.1,2.9c-0.1,5.5-0.2,10.9-0.4,16.4c-0.2,5.4-0.4,10.8-0.6,16.2
			l-0.8,15.8L146.4,179.4z M146,179l-0.9-16.4l-0.8-15.9c-0.3-5.2-0.4-10.4-0.6-15.6c-0.2-5.1-0.3-10.3-0.4-15.4l3,3l-16.4,0.2
			c-5.5,0-10.9,0.1-16.4,0c-5.5,0-10.9-0.1-16.4-0.2c-5.5-0.1-10.9-0.3-16.4-0.6l2.4-2.4c-0.2,21.2-0.6,42.3-0.9,63.5l-1.5-1.5
			L146,179z"/>
	</g>
	<g>
		<path class="st1" d="M106.8,53.4l27.1-0.3h0.4l0.2,0.3l29.4,61.7l0.1,0.3v0.3l0.8,99.2v2.2h-2.2c-28.2,0.2-56.3,0.5-84.5,0.8h-3
			v-3L75,190.3c0-8.2,0-16.4,0.1-24.6c0-8.2,0.2-16.4,0.3-24.6c0.1-8.2,0.3-16.4,0.4-24.6v-0.6l0.2-0.5l15.6-30.8l7.8-15.4
			c1.3-2.6,2.6-5.2,3.8-7.7l1.9-3.9c0.3-0.7,0.6-1.3,0.9-2c0.1-0.3,0.3-0.7,0.4-1c0.1-0.2,0.1-0.3,0.2-0.5c0-0.1,0-0.2,0.1-0.2v-0.1
			l0,0c0,0,0,0.1,0.1,0.1c0,0,0.1,0.1,0.2,0.1v-0.6H106.8z M106.8,53.4c0.1,0,0.2,0,0.2,0.1l0.1,0.1c0,0.1,0,0.1,0,0.2s0,0.1,0,0.2
			s0,0.2,0,0.3c0,0.2-0.1,0.4-0.1,0.5c-0.1,0.4-0.2,0.7-0.3,1.1c-0.2,0.7-0.5,1.4-0.7,2.1c-0.5,1.4-1,2.7-1.5,4.1
			c-1.1,2.7-2.2,5.4-3.3,8C99,75.4,96.8,80.7,94.4,86c-2.3,5.3-4.6,10.6-7,15.8c-2.4,5.3-4.7,10.5-7.2,15.7l0.2-1
			c0.1,8.2,0.3,16.4,0.4,24.6c0.1,8.2,0.2,16.4,0.3,24.6c0.1,8.2,0.1,16.4,0.1,24.6l-0.1,24.6l-3-3c28.2,0.3,56.3,0.6,84.5,0.8
			l-2.2,2.2l0.8-99.2l0.1,0.6L133.2,54l0.5,0.3L106.8,54V53.4z"/>
	</g>
	<g>
		<path class="st1" d="M115.3,67.7c-0.5,2.4-1.1,4.7-1.7,7l-1,3.4l-1,3.4c-0.4,1.1-0.6,2.3-0.9,3.5c-0.3,1.2-0.7,2.2-1.4,3.3
			c-0.6,1-1.4,2-2.2,2.9c-0.9,0.9-1.8,1.8-3.1,2.5l-0.6-0.2c-0.3-1.4-0.3-2.7-0.3-4c0.1-1.2,0.3-2.4,0.6-3.6s0.8-2.2,1.4-3.2
			c0.7-1,1.3-2,1.9-3l1.8-3.1l1.9-3.1c1.3-2,2.5-4,3.9-6L115.3,67.7z"/>
	</g>
	<g>
		<path d="M99.9,106c-0.7,1.5-1.3,2.6-1.3,2.6C98.6,108.6,99.1,107.4,99.9,106c0.6-1.5,1.2-2.7,1.2-2.7S100.7,104.5,99.9,106z"/>
		<path class="st1" d="M100.2,106.1c-0.3,0.4-0.4,0.9-0.4,1.5c0,0.3,0.1,0.6,0.1,0.9c0,0.1,0,0.3,0,0.4c0,0.1,0,0.1,0,0.2v0.1
			c0,0,0,0,0,0.1v0.1l0,0l0,0c0,0,0,0,0,0.1c-0.2,0.3-0.8,0.7-1.3,0.6c-0.3,0-0.4-0.1-0.6-0.2c-0.2-0.1-0.5-0.3-0.6-0.6
			c-0.4-0.6,0-1.4-0.1-1.2V108c0-0.1,0-0.1,0-0.1v-0.1v-0.2v-0.4l0.1-0.8l0.3-1.5c0.1-0.5,0.1-1.1,0.2-1.6c0-0.3,0.1-0.5,0.2-0.8
			c0.1-0.1,0.1-0.2,0.2-0.3l0.1-0.2l0.1-0.1c0,0,0,0,0.1-0.1l0.1-0.1l0.1-0.2c0.2-0.3,0.6-0.6,1.1-0.9c0.5-0.2,1.1-0.3,1.6-0.3
			c0.2,0,0.5,0.1,0.6,0.1c0.2,0.1,0.3,0.1,0.5,0.2c0.4,0.2,0.9,0.6,1.2,1.3c0.3,0.6,0.4,1.3,0.3,1.8c0,0.2-0.1,0.5-0.1,0.5l0,0
			l-0.1,0.1c0,0.1-0.1,0.1-0.1,0.2c0,0.1-0.1,0.1-0.1,0.1c-0.1,0.1-0.1,0.1-0.2,0.2c-0.1,0.1-0.3,0.2-0.4,0.2
			c-0.3,0.1-0.7,0.2-1.1,0.3C101.2,105.5,100.5,105.7,100.2,106.1z M99.7,105.9c0.1-0.5-0.1-1.2-0.5-1.9c-0.2-0.4-0.4-0.7-0.5-1
			c-0.1-0.2-0.1-0.3-0.1-0.4v-0.2l0,0c0,0,0,0,0,0.1v0.1l0,0c0,0-0.1,0.3-0.1,0.5c-0.1,0.5,0,1.2,0.3,1.8s0.8,1,1.2,1.2
			c0.2,0.1,0.4,0.2,0.5,0.2c0.2,0.1,0.4,0.1,0.6,0.1c0.5,0,1.1,0,1.6-0.3c0.5-0.2,0.8-0.6,1.1-0.9l0.1-0.2l0.1-0.1c0.1-0.1,0,0,0,0
			l0,0v0.1c0,0.1-0.1,0.2-0.1,0.3c-0.1,0.2-0.3,0.4-0.5,0.6c-0.4,0.3-0.8,0.7-1.2,1l-1,1.1l-0.5,0.5l-0.3,0.3l-0.1,0.1
			c0,0,0,0-0.1,0l0,0l0,0c-0.1,0.2,0.2-0.5-0.1-1.1c-0.2-0.3-0.4-0.5-0.6-0.6c-0.2-0.1-0.3-0.1-0.6-0.2c-0.5-0.1-1.1,0.3-1.3,0.6
			c-0.1,0.1,0,0,0,0.1l0,0l0,0l0,0l0,0c0,0,0,0,0.1,0l0.2-0.1l0.4-0.2l0.8-0.4C99.2,106.7,99.6,106.4,99.7,105.9z"/>
	</g>
</g>
</svg>
