<?xml version="1.0" encoding="utf-8"?>
<!-- Generator: Adobe Illustrator 21.0.2, SVG Export Plug-In . SVG Version: 6.00 Build 0)  -->
<svg version="1.1" id="Layer_1" xmlns="http://www.w3.org/2000/svg" xmlns:xlink="http://www.w3.org/1999/xlink" x="0px" y="0px"
	 viewBox="0 0 243 243" style="enable-background:new 0 0 243 243;" xml:space="preserve">
<style type="text/css">
	.st0{fill:#FCF9E2;}
	.st1{fill:#21BCBF;}
</style>
<g>
	<rect x="-0.4" y="0.6" class="st0" width="243" height="243"/>
</g>
<g>
	<g>
		<path class="st1" d="M82.7,21.4c5.6-0.8,11.2-1.4,16.9-2l4.3-0.4c1.4-0.1,2.9,0.1,4.4,0h8.8h35h1l0.7,0.7c0.4,0.4,0.6,0.6,0.8,0.9
			c0.2,0.3,0.5,0.6,0.7,0.9c0.4,0.6,0.8,1.2,1.1,1.9c0.7,1.3,1.1,2.7,1.4,4.2c0.2,1.5,0.2,3,0,4.5s-0.7,2.8-1.3,4.1l-0.6,1.4h-1.6
			h-36.6H99.4h-9.1c-0.8,0-1.5,0.1-2.3,0c-0.8,0-1.5-0.1-2.3-0.2l-4.6-0.5l-1.2-0.1l-0.4-0.7c-0.4-0.7-0.6-1.3-0.8-2
			c-0.2-0.7-0.4-1.3-0.5-2c-0.2-1.4-0.3-2.8-0.1-4.2c0.2-1.4,0.8-2.8,1.6-3.9C80.4,22.7,81.7,22,82.7,21.4z M82.7,21.4L82,22.1
			c-0.2,0.2-0.4,0.4-0.6,0.7l-0.5,0.7l-0.4,0.8c-0.5,1.1-0.6,2.3-0.5,3.4c0.1,1.1,0.5,2.3,0.9,3.3c0.5,1,1.1,2.1,1.7,3L81,33.1
			l4.6-0.5c0.8-0.1,1.5-0.2,2.3-0.2c0.8,0,1.5,0,2.3,0h9.1h18.3h36.6l-2.3,1.4c0.4-0.9,0.8-1.9,0.9-2.8c0.2-0.9,0.2-1.9,0-2.8
			c-0.1-0.9-0.4-1.9-0.9-2.7c-0.2-0.4-0.5-0.9-0.8-1.3c-0.1-0.2-0.3-0.4-0.4-0.6c-0.1-0.2-0.3-0.4-0.4-0.4l1.7,0.7h-34.3h-8.6
			c-1.4,0-2.8,0.1-4.3,0l-4.4-0.4C94.7,22.9,88.7,22.2,82.7,21.4z"/>
	</g>
	<g>
		<path class="st1" d="M81,37.6c-1,3.4-1.8,7-2.8,10.9c-0.9,3.8-2,7.9-3.1,12L73,57.4l2.8-0.2c0.9-0.1,1.9-0.1,2.8,0
			c1.9,0.1,3.8,0,5.6,0h11.3h22.6h45.1l-2.3,3.4l-8.4-22.1l2.3,1.6h-36.9c-3.1,0-6.2,0-9.2,0.1c-3.1-0.2-6.2-0.5-9.2-0.7
			C93.3,38.9,87.1,38.3,81,37.6z M81,37.6c6.1-0.7,12.3-1.3,18.4-1.8c3.1-0.2,6.2-0.6,9.2-0.7c3.1,0.1,6.2,0,9.2,0.1h36.9h1.7
			l0.6,1.6l8.4,22.1l1.3,3.4h-3.6H118H95.4H84.1c-1.9,0-3.8,0-5.6,0c-0.9,0-1.9,0-2.8,0L73,62l-3.5-0.3l1.3-2.8
			c1.6-3.3,3.2-6.6,4.9-10.1C77.5,45.3,79.3,41.6,81,37.6z"/>
	</g>
	<g>
		<path class="st1" d="M165.6,219l-46.8,1.8l-12,0.5c-2,0.1-4,0.2-6,0.2h-6.1H70.5H68V219V62.4v-2.5h2.5h95.1h2.5v2.5
			c0,26.4-0.1,52.8-0.2,79.2c-0.1,6.6,0.1,13.3-0.2,19.7l-0.7,19.4L165.6,219z M165.6,219l-1.4-40.1l-0.7-19.8
			c-0.4-6.6-0.2-12.9-0.2-19.4c-0.1-25.8-0.2-51.5-0.2-77.3l2.5,2.5H70.5l2.5-2.5V219l-2.5-2.5h23.3h5.8c1.9,0,3.9,0.1,5.9,0.2
			l11.8,0.5l23.9,0.9L165.6,219z"/>
	</g>
	<g>
		<path class="st1" d="M159,156.5l-19.2,1.6l-4.9,0.4c-1.7,0.1-3.3,0.3-5.1,0.3c-3.5-0.1-6.9,0.1-10.4,0.1
			c-13.8,0.1-27.7,0.2-41.5,0.2h-2.5v-2.5v-31V123h2.5h40.6h20.3c6.8,0,13.5,0,20.3,0h2.4l0.1,2.5c0.1,1.4,0,2.7-0.1,4.1l-0.3,4
			l-0.7,7.9l-0.7,7.6C159.4,151.6,159.2,154.1,159,156.5z M159,156.5c-0.2-2.8-0.4-5.5-0.6-8.2c-0.2-2.7-0.5-5.3-0.7-7.9l-0.7-7.6
			l-0.3-3.7c-0.1-1.2-0.2-2.4-0.1-3.7l2.5,2.5c-6.8-0.1-13.5,0-20.3,0h-20.3H77.9l2.5-2.5v31l-2.5-2.5c13.2,0,26.4,0.1,39.6,0.2
			c3.3,0,6.6,0.1,9.9,0.1c1.6,0,3.4,0.1,5.1,0.3l5.2,0.4L159,156.5z"/>
	</g>
	<g>
		<path class="st1" d="M128.4,49.2c0,1.3-0.2,2.6-0.8,4.1s-1.5,2.9-2.8,3.8c-2.8,1.2-5.7,1.7-8.5,1.7c-2.9,0-5.8-0.5-8.5-1.8
			c-1.4-0.7-2.7-1.5-3.9-2.8c-1.1-1.3-2.1-3.1-2.1-5.2c0.1-2.1,1.1-3.9,2.3-5.1s2.6-2,3.9-2.7c2.8-1.2,5.7-1.7,8.5-1.7
			s5.6,0.4,8.5,1.6c1.3,0.9,2.3,2.4,2.8,3.9C128.3,46.6,128.4,48,128.4,49.2z M128.4,49.2c0-0.3-0.1-0.6-0.1-0.9
			c-0.1-0.3-0.2-0.6-0.4-0.9c-0.3-0.5-0.9-0.9-1.4-1.1c-1.2-0.5-2.3-0.4-3.4-0.5c-1.9-0.8-4.2-1.1-6.5-1.2c-2.3,0-4.5,0.4-6.4,1.2
			c-0.9,0.4-1.8,1-2.4,1.6c-0.6,0.6-0.8,1.2-0.9,1.7c0,0.5,0.2,1.1,0.8,1.7s1.4,1.2,2.3,1.6c1.9,0.9,4.2,1.3,6.4,1.3
			s4.5-0.4,6.4-1.3c1.1-0.1,2.3-0.1,3.5-0.5C127.4,51.7,128.4,50.6,128.4,49.2z"/>
	</g>
	<g>
		<path class="st1" d="M83.5,153.5l18.3-1.6l4.4-0.4c0.7-0.1,1.5-0.2,2.2-0.2s1.4,0,2.1,0c2.8,0,5.6-0.1,8.4-0.1
			c11.2-0.1,22.3-0.2,33.5-0.2l-2.5,2.5v-24.6l2.5,2.5h-34.5h-17.2c-5.7,0-11.5-0.1-17.2,0.1l2.6-2.6c-0.1,1.9-0.4,3.8-0.6,5.8
			l-0.7,6c-0.2,2-0.5,4.1-0.7,6.3C83.8,149.1,83.6,151.2,83.5,153.5z M83.5,153.5c-0.2-1.9-0.4-3.8-0.6-5.7l-0.7-6l-0.7-6.3
			c-0.2-2.1-0.5-4.3-0.6-6.5l-0.1-2.6l2.7,0.1c5.7,0.1,11.5,0,17.2,0.1h17.2h34.5h2.5v2.5v24.6v2.5h-2.5c-11.8,0-23.6-0.1-35.4-0.2
			c-3,0-5.9-0.1-8.9-0.1c-0.7,0-1.5,0-2.2,0s-1.4-0.1-2.1-0.2l-4.2-0.4L83.5,153.5z"/>
	</g>
</g>
</svg>
