<?xml version="1.0" encoding="utf-8"?>
<!-- Generator: Adobe Illustrator 21.0.2, SVG Export Plug-In . SVG Version: 6.00 Build 0)  -->
<svg version="1.1" id="Layer_1" xmlns="http://www.w3.org/2000/svg" xmlns:xlink="http://www.w3.org/1999/xlink" x="0px" y="0px"
	 viewBox="0 0 242 242" style="enable-background:new 0 0 242 242;" xml:space="preserve">
<style type="text/css">
	.st0{fill:#F0592E;}
	.st1{fill:#FDD264;}
</style>
<g>
	<rect x="-0.5" y="-0.4" class="st0" width="243" height="243"/>
</g>
<g>
	<g>
		<path class="st1" d="M76.9,23.6c3.5,0,6.9-0.1,10.3-0.4c3.4-0.3,6.9-0.7,10.3-1.1c3.4-0.4,6.9-0.8,10.3-1
			c3.5-0.2,6.9-0.3,10.4-0.2c6.9,0.1,13.9,0.9,20.8,1.5c6.9,0.6,13.8,0.7,20.8,0.4h0.1h0.1c0.8,0.2,1.4,0.4,2,0.8
			c0.6,0.4,1.2,1,1.6,1.7c0.4,0.7,0.6,1.6,0.5,2.3c0,0.8-0.2,1.4-0.4,2.1c-0.5,1.2-1.1,2.4-1.8,3.3c-0.7,1-1.4,1.9-2.2,2.8l-0.4,0.5
			l-1.1,0.1c-3.3,0.3-6.5,0.5-9.8,0.7s-6.5,0.3-9.8,0.4l-9.8,0.3c-3.3,0.1-6.5,0.2-9.8,0.2s-6.5,0-9.8-0.1s-6.5-0.2-9.8-0.4
			C92.9,37,86.3,36,79.8,35.3l-0.6-0.1L79,34.9c-0.6-0.9-1.2-1.8-1.7-2.8c-0.5-0.9-1.1-1.9-1.5-2.9s-0.9-2-1-3.2
			c0-0.6,0-1.2,0.4-1.8C75.7,23.8,76.3,23.7,76.9,23.6z M76.9,24.3c-0.4,0.1-0.9,0.3-1.1,0.6s-0.3,0.8-0.2,1.2
			c0.2,0.9,0.6,1.9,1.1,2.8c0.5,0.9,1.2,1.7,1.8,2.5c0.7,0.8,1.4,1.6,2.1,2.3l-0.8-0.4c6.5-0.7,13.1-1.7,19.6-2.2
			c3.3-0.3,6.5-0.3,9.8-0.4c3.3-0.1,6.5-0.1,9.8-0.1s6.5,0.1,9.8,0.2l9.8,0.3c3.3,0.1,6.5,0.2,9.8,0.4s6.5,0.5,9.8,0.7l-1.5,0.6
			c0.8-0.7,1.6-1.4,2.2-2.1c0.7-0.7,1.3-1.5,1.7-2.3s0.5-1.5,0.4-2c-0.1-0.2-0.3-0.5-0.6-0.8c-0.3-0.2-0.7-0.4-1-0.5h0.2
			c-6.9-0.3-13.8-0.2-20.7,0.4c-6.9,0.6-13.8,1.4-20.7,1.5c-3.4,0.1-6.9,0-10.4-0.2s-6.9-0.6-10.4-1s-7-0.9-10.4-1.1
			C83.9,24.4,80.4,24.3,76.9,24.3z"/>
	</g>
	<g>
		<path class="st1" d="M80.2,34.5c-0.9,1.5-1.8,3-2.6,4.5c-0.8,1.5-1.7,3-2.4,4.6c-0.7,1.5-1.4,3.1-1.9,4.7
			c-0.1,0.4-0.2,0.8-0.3,1.2l-0.2,0.6l-0.1,0.6l-0.1,0.6v0.5c0,0.2,0,0.3,0,0.5V53c0.3,6.9,0.6,13.9,0.8,20.8
			c0.4,13.9,0.6,27.8,0.7,41.7c0.2,13.9-0.1,27.8-0.7,41.7s-1.2,27.8-1.3,41.7l-0.1-0.5c0.9,1.9,2.1,3.7,3.4,5.3s3,3,4.6,3
			c4.4,0,8.8,0,13.2-0.1c8.8-0.1,17.6-0.4,26.3-0.7c8.8-0.3,17.6-0.6,26.3-0.9l12.9-0.3c1.7-0.2,3.5-0.8,4.6-1.6
			c0.3-0.2,0.5-0.5,0.8-0.7c0.2-0.3,0.5-0.5,0.6-0.8c0.4-0.5,0.5-1.2,0.7-1.9l-0.1,0.6l-0.5-36.7c-0.1-12.2,0-24.4,0.1-36.7
			c0.1-6.1,0.2-12.2,0.3-18.3l0.2-9.2l0.2-9.2c0.3-12.2,0.8-24.4,1.3-36.7v0.3c-0.3-1.7-0.7-3.5-1.2-5.3s-1.1-3.5-1.7-5.2
			c-0.7-1.7-1.5-3.3-2.5-4.8s-2.1-2.9-3.6-4l0.4-0.6c1.7,0.9,3.1,2.3,4.4,3.7c1.3,1.5,2.2,3.1,3.2,4.8c0.9,1.7,1.7,3.4,2.4,5.2
			c0.7,1.8,1.3,3.6,1.8,5.5v0.1v0.2c0.5,12.2,1,24.4,1.3,36.7l0.2,9.2l0.2,9.2c0.1,6.1,0.2,12.2,0.3,18.3
			c0.2,12.2,0.2,24.4,0.1,36.7l-0.5,36.7v0.3l-0.1,0.3c-0.6,2.9-2.5,5.8-5,7.3c-1.2,0.8-2.5,1.4-3.8,1.8c-1.3,0.4-2.6,0.6-3.9,0.7
			h-0.5h-0.3h-0.2h-0.8h-1.6l-3.3-0.1l-6.6-0.2c-8.8-0.2-17.6-0.6-26.3-0.9c-8.8-0.3-17.6-0.6-26.3-0.7c-4.4-0.1-8.8-0.1-13.2-0.1
			c-0.3,0-0.7-0.1-1-0.1c-0.4,0-0.6-0.2-1-0.3c-0.6-0.3-1.2-0.6-1.6-0.9c-1-0.7-1.8-1.6-2.6-2.4c-1.5-1.8-2.7-3.6-3.8-5.7l-0.1-0.2
			v-0.3c-0.2-13.9-0.8-27.8-1.3-41.7s-0.8-27.8-0.7-41.7c0.1-13.9,0.3-27.8,0.7-41.7c0.2-6.9,0.5-13.9,0.8-20.8v-0.7
			c0-0.2,0.1-0.5,0.1-0.8l0.1-0.8l0.2-0.7l0.2-0.7l0.2-0.7c0.2-0.4,0.3-0.9,0.5-1.3c0.7-1.7,1.6-3.2,2.6-4.7c1.9-3,4-5.8,6.3-8.5
			L80.2,34.5z"/>
	</g>
	<g>
		<path class="st1" d="M80.2,207.7c0.1,1.1,0.2,2.2,0.4,3.1c0.2,1,0.5,1.9,0.9,2.6c0.4,0.7,0.9,1.1,1.4,1.3c0.5,0.3,1.2,0.4,1.9,0.5
			l-0.6-0.1c2.9-0.2,5.8-0.4,8.7-0.3c2.9,0.1,5.8,0.7,8.7,1.3c5.8,1.2,11.6,0.9,17.4-0.1c2.9-0.5,5.8-1,8.7-1.2s5.8-0.4,8.7-0.6
			c5.8-0.3,11.6,0.1,17.4,0.8l-0.6,0.1c0,0,0.2,0,0.4,0s0.3-0.1,0.5-0.1c0.3-0.1,0.7-0.2,1-0.4c0.6-0.3,1.2-0.7,1.6-1.4
			c0.2-0.3,0.4-0.7,0.6-1.1c0.2-0.4,0.3-0.9,0.4-1.3c0.1-0.5,0.1-1,0.2-1.5c0-0.5,0-1.1,0-1.6l0.7-0.2c0.3,0.5,0.6,1,0.9,1.5
			c0.2,0.5,0.5,1.1,0.6,1.7c0.3,1.2,0.5,2.5,0.2,3.9s-1,2.8-2.1,3.8c-0.5,0.5-1.1,1-1.7,1.4c-0.3,0.2-0.6,0.4-1,0.5
			c-0.4,0.2-0.6,0.3-1.2,0.5l-0.6,0.1c-5.8,0.7-11.6,1.1-17.4,0.8c-2.9-0.2-5.8-0.4-8.7-0.6c-2.9-0.2-5.8-0.7-8.7-1.2
			c-5.8-1-11.6-1.3-17.4-0.1c-2.9,0.5-5.8,1.1-8.7,1.3c-2.9,0.1-5.8,0-8.7-0.3h-0.5l0,0c-1.4-0.5-2.8-1-3.9-2.2
			c-1.1-1.1-1.8-2.6-2.1-4c-0.2-1.4-0.1-2.7,0.3-3.9c0.3-1.2,0.8-2.2,1.5-3.2L80.2,207.7z"/>
	</g>
	<g>
		<path class="st1" d="M71.4,109.2c0-0.1,0.1-0.5,0.2-0.6l0.1-0.2l0.3-0.3l0.6-0.7c0.4-0.4,0.8-0.9,1.2-1.3c0.8-0.8,1.6-1.6,2.4-2.4
			c1.7-1.6,3.4-3.1,5.2-4.5c1.8-1.4,3.7-2.8,5.6-4.1c1-0.6,1.9-1.3,2.9-1.9l1.5-0.9l1.5-0.8c4.1-2.2,8.5-4.1,13-5.4s9.2-2.3,14-2.5
			s9.6,0.2,14.3,1.2s9.2,2.9,13.4,5.1c8.4,4.6,15.3,11.1,21.3,18l0.4,0.5v0.5c-0.2,4.3-0.3,8.6-0.4,13c-0.1,4.3-0.1,8.6,0,13
			c0,2.2,0,4.3,0.1,6.5s0.1,4.3,0.2,6.5c0.1,4.3,0.3,8.6,0.5,13v0.6l-0.4,0.6c-1.5,2-3,3.7-4.7,5.4c-1.6,1.7-3.4,3.3-5.2,4.8
			c-3.6,3-7.5,5.8-11.7,8c-8.4,4.5-18,7.2-27.8,7.1c-9.8,0-19.4-2.7-27.9-7.2c-8.5-4.4-16-10.4-22.6-17.1l-1.1-1.1l0.1-1.3l0.7-13
			l0.7-13l0.8-13l0.4-6.5l0.2-3.2l0.1-1.6v-0.8C71.5,109.7,71.5,109.4,71.4,109.2z M72,109c0,0,0-0.1-0.1-0.1
			C72,108.8,72,108.9,72,109C72.1,109,72.1,109,72,109c0.1,0.1,0.1,0.2,0.1,0.2c0,0.1,0.1,0.2,0.1,0.2c0,0.1,0.1,0.3,0.1,0.4
			l0.1,0.8l0.2,1.6c0.1,1.1,0.2,2.2,0.4,3.3c0.2,2.2,0.4,4.3,0.5,6.5c0.3,4.3,0.5,8.7,0.7,13s0.4,8.7,0.5,13s0.2,8.7,0.3,13l-1-2.4
			c6.6,6,13.9,11.1,21.6,15c3.8,2,7.9,3.5,12,4.7s8.3,1.8,12.6,2c4.3,0.1,8.5-0.2,12.7-1.1c4.2-0.9,8.3-2.4,12.2-4.2
			c3.9-1.9,7.7-4.1,11.3-6.7c1.8-1.3,3.6-2.6,5.2-4.1c1.7-1.4,3.3-3,4.8-4.5l-0.4,1.2c0.2-4.3,0.4-8.6,0.5-13
			c0.1-2.2,0.1-4.3,0.2-6.5c0.1-2.2,0.1-4.3,0.1-6.5c0-4.3,0.1-8.6,0-13c-0.1-4.3-0.2-8.6-0.4-13l0.4,1
			c-6.4-6.2-13.8-11.3-21.7-14.9c-4-1.7-8-3.2-12.2-4.1s-8.4-1.4-12.7-1.3c-8.6,0.1-17.2,2.3-25.3,5.8c-4.1,1.7-8,3.8-11.9,6.1
			c-1.9,1.2-3.8,2.4-5.7,3.6c-0.9,0.6-1.8,1.3-2.8,2c-0.5,0.3-0.9,0.7-1.4,1l-0.7,0.5l-0.3,0.3L72,109C72.2,109.2,72.2,109,72,109z"
			/>
	</g>
	<g>
		<path class="st1" d="M99.1,124.3c1.7-1.3,3.3-2,5-2.4c0.8-0.2,1.7-0.3,2.5-0.4c0.8-0.1,1.7,0,2.5,0.2c1.7,0.5,3.3,1.6,5,1.8
			s3.3-0.1,5-0.8c0.8-0.3,1.7-0.7,2.5-0.9s1.7-0.4,2.5-0.5c1.7-0.3,3.3-0.5,5-0.4s3.3,0.5,5,1c0.8,0.3,1.7,0.6,2.5,1
			s1.7,0.8,2.5,1.4v0.7c-0.8,0.6-1.7,1.1-2.5,1.4c-0.8,0.4-1.7,0.7-2.5,1c-1.7,0.5-3.3,0.9-5,1s-3.3-0.2-5-0.4
			c-0.8-0.1-1.7-0.2-2.5-0.5c-0.8-0.2-1.7-0.6-2.5-0.9c-1.7-0.7-3.3-1-5-0.8s-3.3,1.3-5,1.8c-0.8,0.2-1.7,0.3-2.5,0.2
			s-1.7-0.2-2.5-0.4c-1.7-0.4-3.3-1-5-2.4V124.3z"/>
	</g>
	<g>
		<path class="st1" d="M93.2,144.3c2.2-1.3,4.3-2,6.5-2.4c1.1-0.2,2.2-0.3,3.2-0.4c1.1-0.1,2.2,0,3.2,0.2c2.2,0.5,4.3,1.6,6.5,1.8
			s4.3-0.1,6.5-0.8c1.1-0.3,2.2-0.7,3.2-0.9c1.1-0.2,2.2-0.4,3.2-0.5c2.2-0.3,4.3-0.5,6.5-0.4s4.3,0.4,6.5,1c1.1,0.3,2.2,0.6,3.2,1
			c1.1,0.4,2.2,0.8,3.2,1.4v0.7c-1.1,0.6-2.2,1.1-3.2,1.4c-1.1,0.4-2.2,0.7-3.2,1c-2.2,0.5-4.3,0.8-6.5,1c-2.2,0.1-4.3-0.2-6.5-0.4
			c-1.1-0.1-2.2-0.2-3.2-0.5c-1.1-0.2-2.2-0.6-3.2-0.9c-2.2-0.7-4.3-1-6.5-0.8s-4.3,1.3-6.5,1.8c-1.1,0.2-2.2,0.3-3.2,0.2
			c-1.1-0.1-2.2-0.2-3.2-0.4c-2.2-0.4-4.3-1-6.5-2.4V144.3z"/>
	</g>
</g>
</svg>
