<?xml version="1.0" encoding="utf-8"?>
<!-- Generator: Adobe Illustrator 21.0.2, SVG Export Plug-In . SVG Version: 6.00 Build 0)  -->
<svg version="1.1" id="Layer_1" xmlns="http://www.w3.org/2000/svg" xmlns:xlink="http://www.w3.org/1999/xlink" x="0px" y="0px"
	 viewBox="0 0 243 243" style="enable-background:new 0 0 243 243;" xml:space="preserve">
<style type="text/css">
	.st0{fill:#21BCBF;}
	.st1{fill:#224760;}
</style>
<g>
	<rect y="0.1" class="st0" width="243" height="243"/>
</g>
<g>
	<path class="st1" d="M98.9,40.7l15-0.8c4.9-0.3,9.7-0.6,14.4-0.8l-1.7,1.3c0.5-2.3,0.7-4.8,0.6-7.2c-0.1-2.3-0.6-4.6-1.7-6.2
		c-1.1-1.6-2.6-2.4-4.7-2.5c-0.5-0.1-1,0-1.6,0l-2,0.1c-1.3,0.1-2.6,0.1-3.9,0.1c-1.3,0-2.6,0-3.9,0c-0.7,0-1.3,0-2,0l-1.7-0.1
		c-0.6,0-1.5,0.2-2.2,0.5c-0.2,0.1-0.3,0.2-0.5,0.3l-0.3,0.2l-0.2,0.2c-0.2,0.2-0.3,0.3-0.5,0.5l-0.4,0.6c-0.3,0.4-0.5,0.9-0.8,1.3
		l-0.6,1.5c-0.3,1.1-0.6,2.2-0.8,3.5c-0.1,0.6-0.2,1.2-0.2,1.8L99,36.9l-0.1,0.9l-0.1,0.9C99,39.3,98.9,39.9,98.9,40.7z M98.5,41.1
		c-0.2-0.5-0.5-1.2-0.7-1.8l-0.4-1.1c-0.1-0.4-0.2-0.8-0.3-1.1c-0.3-1.3-0.7-2.6-0.8-4c-0.1-0.7-0.2-1.4-0.2-2.1
		c0-0.7,0-1.4,0.1-2.2c0.1-0.7,0.2-1.5,0.4-2.2l0.4-1.1c0.1-0.4,0.2-0.8,0.4-1.1c0.7-1.5,1.8-2.9,3.2-4c0.7-0.5,1.5-1,2.4-1.3
		s1.7-0.5,2.7-0.6l2.1-0.1c0.6,0,1.3,0,1.9,0c1.3,0,2.6,0,3.8,0c1.3,0,2.6,0.1,3.8,0.2l1.9,0.1c0.7,0.1,1.5,0.1,2.3,0.3
		c1.5,0.3,3.2,0.8,4.6,1.8c1.4,0.9,2.6,2.2,3.4,3.7c1.6,2.9,1.9,5.9,1.8,8.7c-0.1,2.8-0.6,5.4-1.4,8.2l-0.4,1.4l-1.3-0.1
		c-5.1-0.2-10.2-0.5-15.2-0.8L98.5,41.1z"/>
</g>
<g>
	<path class="st1" d="M101.8,41.4C101.9,41.4,101.9,41.4,101.8,41.4v0.3l-0.1,0.4l-0.3,0.8l-0.6,1.6c-0.4,1-0.8,2.1-1.3,3.1
		c-0.9,2.1-1.8,4.1-2.7,6.1c-2,4-4.1,8-6.7,11.7l0,0L90,65.5c-1.6,1.8-3.1,3.8-4.4,5.9s-2.4,4.2-3.3,6.5c-0.8,2.2-1.4,4.6-1.4,6.8
		c0,1.1,0.1,2.2,0.4,3.3c0.3,1.1,0.8,2,1.3,3l-1.4-0.8l33.1-0.6c11-0.2,22.1-0.4,33.1-0.7l-2.7,1.9c0,0,0-0.1,0-0.2s0-0.2,0.1-0.3
		c0-0.2,0.1-0.5,0.1-0.7c0.1-0.5,0.1-1,0.1-1.5s0-1-0.1-1.5s-0.1-1-0.2-1.6c-0.3-2.1-0.9-4.2-1.6-6.2c-1.5-4.1-3.8-8-6.4-11.6
		c-1.3-1.9-2.8-3.6-4.3-5.5l-0.3-0.4l-0.3-0.4l-0.5-0.8l-1.1-1.5c-0.7-1-1.4-2-2-3.1c-1.3-2.1-2.4-4.3-3.4-6.6
		c-1-2.3-1.8-4.8-2.1-7.5l2,1.8c-1.8-0.1-3.7-0.2-5.6-0.3c-1.9-0.1-3.7-0.3-5.7-0.4L101.8,41.4z M101.5,40.9l5.6-0.5l5.8-0.5
		c2-0.2,3.9-0.3,5.9-0.4c2-0.1,4-0.3,6-0.3l1.6-0.1l0.4,1.8c0.4,2,1.3,4,2.3,6s2.3,3.9,3.6,5.8c0.7,0.9,1.3,1.9,2,2.8l1.1,1.4
		l0.5,0.7l0.5,0.6c1.6,1.8,3.3,3.5,4.8,5.5c3.1,3.9,5.7,8.3,7.5,13.1c0.8,2.4,1.5,5,1.8,7.6c0.1,0.7,0.1,1.3,0.1,2s0,1.3,0,2
		c-0.1,0.7-0.1,1.4-0.2,2.1c0,0.3-0.1,0.7-0.2,1.1c0,0.2-0.1,0.4-0.1,0.6c-0.1,0.2-0.1,0.4-0.2,0.7l-0.7,2l-2-0.1
		c-11-0.3-22.1-0.5-33.1-0.7l-33.1-0.6h-0.9l-0.4-0.7c-0.7-1.2-1.3-2.5-1.6-3.9c-0.3-1.4-0.4-2.8-0.4-4.1c0.1-2.7,0.9-5.3,1.9-7.7
		c1-2.4,2.3-4.6,3.8-6.7s3-4.1,4.8-5.9l-0.1,0.1c2.7-3.5,5-7.3,7.1-11.2c1.1-2,2.1-3.9,3-5.9c0.5-1,1-2,1.4-3l0.7-1.5l0.3-0.8
		l0.2-0.4l0.1-0.2C101.3,41.2,101.4,41,101.5,40.9z"/>
</g>
<g>
	<path class="st1" d="M82.6,92.3l1.1,42.6l-1.3-1.3l31.4-0.6l31.4-0.5l-2.4,2.4c-0.2-3.6-0.4-7.1-0.5-10.7
		c-0.1-3.6-0.2-7.1-0.2-10.7c0-3.6-0.1-7.1-0.1-10.7s0-7.1,0-10.7l3.1,3.1c-5-0.1-10.1-0.1-15.1-0.3c-5.1-0.1-10.2-0.4-15.3-0.6
		C104.3,93.6,93.8,93,82.6,92.3z M82.2,91.8c9.8-0.8,20.1-1.4,30.7-1.9c5.3-0.2,10.6-0.5,16-0.6c5.4-0.2,10.8-0.3,16.2-0.3h3.1
		l0.1,3.2c0.1,3.6,0,7.1,0,10.7s-0.1,7.1-0.1,10.7c-0.1,3.6-0.1,7.1-0.2,10.7c-0.1,3.6-0.3,7.1-0.5,10.7l-0.1,2.4h-2.3l-31.4-0.5
		l-31.4-0.6H81V135L82.2,91.8z"/>
</g>
<g>
	<path class="st1" d="M81.3,135.1c10.6-0.2,21.3-0.5,32.1-0.7c10.8-0.3,21.8-0.6,32.8-0.8h1.9l-0.6,1.9c-0.9,2.7-1.5,5.5-2.1,8.3
		s-1,5.6-1.4,8.4c-0.6,5.7-0.8,11.4-0.1,17l0.3,2.1c0.1,0.7,0.3,1.4,0.4,2.1l0.4,2.1c0.2,0.7,0.4,1.3,0.6,2l0.6,2
		c0.2,0.7,0.5,1.3,0.7,1.9l0.7,1.9c0.1,0.2,0.1,0.3,0.2,0.5l0.3,0.5c0.2,0.4,0.3,0.7,0.5,1.1c1.2,2.8,2.1,5.8,2.4,9
		c0.4,3.1,0.1,6.5-1.2,9.7l0.1-0.3c-0.5,1.7-1.1,3.2-1.8,4.7s-1.5,3-2.4,4.4c-1.8,2.8-4.2,5.6-7.8,7.2c-1.7,0.8-3.8,1.2-5.7,1.1
		c-2-0.1-3.8-0.6-5.4-1.4c-3.3-1.5-5.9-3.7-8.3-6.1l2,0.9l-12.1,0.2l2.4-1.2c-0.5,0.7-0.9,1.1-1.4,1.7c-0.5,0.5-0.9,1-1.4,1.5
		c-1,0.9-2.1,1.8-3.3,2.6c-2.4,1.5-5.3,2.7-8.5,2.6c-1.6,0-3.2-0.4-4.6-0.9c-1.4-0.6-2.7-1.4-3.9-2.2c-1.1-0.9-2.2-1.8-3.1-2.9
		c-0.5-0.5-0.9-1-1.3-1.6l-0.7-0.9c-0.2-0.3-0.4-0.6-0.6-0.9c-2.7-4.5-4.7-9.3-5.4-14.7c-0.3-2.7-0.3-5.4,0.3-8.2
		c0.6-2.7,1.8-5.3,3.5-7.5l-0.2,0.3c0-0.1,0.1-0.3,0.2-0.5s0.2-0.4,0.3-0.6c0.2-0.4,0.3-0.9,0.5-1.3c0.3-0.9,0.6-1.8,0.8-2.8
		c0.5-1.9,0.9-3.9,1.2-5.8c0.6-4,1-8,1.2-12c0.1-2,0.2-4.1,0.2-6.1c0.1-2,0-4-0.2-6s-0.4-4-0.9-6c-0.2-1-0.5-1.9-0.8-2.9
		c-0.1-0.5-0.4-0.9-0.6-1.4c-0.1-0.2-0.3-0.5-0.4-0.8C81.5,135.6,81.4,135.3,81.3,135.1z M81.8,135.4c0.2,0.2,0.4,0.3,0.5,0.5
		c0.2,0.1,0.3,0.2,0.4,0.5c0.3,0.5,0.6,0.9,0.8,1.4c0.5,0.9,0.9,1.9,1.2,2.9c0.7,2,1.2,4,1.6,6.1s0.7,4.1,0.9,6.2
		c0.1,2.1,0.3,4.1,0.4,6.2c0.2,4.2,0.1,8.3-0.3,12.5c-0.2,2.1-0.4,4.2-0.8,6.3c-0.2,1.1-0.4,2.1-0.7,3.2c-0.1,0.5-0.3,1.1-0.5,1.6
		c-0.1,0.3-0.2,0.5-0.3,0.8c-0.1,0.3-0.2,0.5-0.4,0.9v0.1l-0.1,0.2c-2.3,3.5-2.9,7.7-2.2,12c0.7,4.2,2.6,8.5,5,12.2l0.4,0.6l0.5,0.6
		c0.3,0.4,0.7,0.8,1,1.2c0.7,0.8,1.5,1.5,2.2,2.1c0.8,0.6,1.6,1,2.4,1.4c0.8,0.3,1.6,0.5,2.5,0.5c1.7,0.1,3.4-0.5,5.1-1.6
		c0.8-0.5,1.7-1.2,2.4-1.9c0.4-0.4,0.8-0.7,1.1-1.1c0.3-0.4,0.7-0.8,1-1.1l1-1.3h1.5l12.1,0.2h1.2l0.8,0.8c2,2.1,4.2,4,6.5,5.2
		s4.7,1.4,6.9,0.5s4.2-2.9,5.8-5.3c1.6-2.3,2.9-5.1,3.8-7.7l0.1-0.2v-0.1c1-2.2,1.3-4.8,1.1-7.4c-0.2-2.6-0.9-5.3-1.9-7.8l-0.4-0.9
		l-0.2-0.4c-0.1-0.2-0.2-0.4-0.2-0.5l-0.8-2.2c-0.3-0.7-0.6-1.4-0.8-2.2l-0.6-2.2c-0.2-0.7-0.4-1.5-0.6-2.2l-0.4-2.2
		c-0.1-0.7-0.3-1.5-0.4-2.2l-0.2-2.2c-0.6-6-0.3-11.9,0.5-17.8c0.8-5.9,2.2-11.6,4.1-17.2l1.3,1.8l-31.9-0.5
		C103.6,135.6,92.8,135.4,81.8,135.4z"/>
</g>
</svg>
