<?xml version="1.0" encoding="utf-8"?>
<!-- Generator: Adobe Illustrator 21.0.2, SVG Export Plug-In . SVG Version: 6.00 Build 0)  -->
<svg version="1.1" id="Layer_1" xmlns="http://www.w3.org/2000/svg" xmlns:xlink="http://www.w3.org/1999/xlink" x="0px" y="0px"
	 viewBox="0 0 235 235" style="enable-background:new 0 0 235 235;" xml:space="preserve">
<style type="text/css">
	.st0{fill:#FDD264;}
	.st1{fill:#F0592E;}
</style>
<g>
	<rect class="st0" width="235.1" height="235.1"/>
</g>
<g>
	<g>
		<path class="st1" d="M159.4,134.5c0,11-4.8,21.9-12.8,29.5c-4,3.8-8.7,6.9-13.9,9s-10.7,3.2-16.3,3.3c-5.6,0-11.2-0.9-16.5-2.9
			s-10.2-4.9-14.3-8.7c-4.2-3.8-7.6-8.4-10-13.6c-2.4-5.2-3.6-10.8-3.7-16.5s1.1-11.4,3.4-16.7s5.7-10,9.8-14
			c4.2-3.9,9.1-7,14.5-9.1c5.4-2,11.1-3.1,16.8-3.1c5.7,0.1,11.4,1.2,16.6,3.4c5.2,2.2,10,5.4,14,9.4
			C155,112.5,159.5,123.5,159.4,134.5z M159,134.5c-0.1-5.4-1.3-10.9-3.7-15.7c-2.4-4.9-5.8-9.2-9.8-12.7
			c-8.1-7-18.7-10.5-29.2-10.4c-5.2,0-10.5,1-15.3,2.9c-4.9,1.9-9.4,4.6-13.3,8.1c-3.9,3.5-7.1,7.8-9.2,12.5
			c-2.2,4.7-3.4,10-3.4,15.2c0,5.3,1,10.5,3.1,15.4c2.1,4.8,5.2,9.2,9.1,12.9c3.9,3.6,8.4,6.5,13.4,8.5s10.3,3,15.6,3.1
			c10.7,0.2,21.5-3.7,29.6-10.9c4-3.6,7.4-8.1,9.6-13C157.9,145.4,159,140,159,134.5z"/>
	</g>
	<g>
		<path class="st1" d="M156.6,213.5c-14.7-0.2-29.3,0.6-44,0.8l-22,0.3l-11,0.1l-5.5,0.1h-0.3h-0.2c-0.2,0-0.4,0-0.6-0.1
			c-0.7-0.2-1.3-0.8-1.6-1.5c-0.1-0.2-0.1-0.4-0.1-0.6v-0.2v-0.3v-0.7V210v-0.4c0-0.4,0.1-0.8,0.3-1.1c0.4-0.7,1.1-1.1,1.9-1.1
			c14.7-0.2,29.3-0.7,44-0.4c3.7,0.1,7.3,0.2,11,0.3l11,0.6l11,0.6l5.5,0.2h0.3h0.2c0.1,0,0.2,0,0.2,0c0.3,0.1,0.6,0.4,0.7,0.7
			c0,0.2,0,0.3,0,0.4v0.3v0.7v1.4v0.3c0,0.2-0.1,0.3-0.1,0.4C157.2,213.4,156.9,213.5,156.6,213.5z M156.6,213.1
			c0.2,0,0.3-0.1,0.4-0.2c0-0.1,0.1-0.1,0.1-0.2v-0.3V211v-0.7c0-0.2,0-0.5,0-0.6s-0.2-0.2-0.3-0.3h-0.1h-0.2h-0.3l-5.5,0.2l-11,0.6
			l-11,0.6c-3.7,0.2-7.3,0.3-11,0.3c-14.7,0.3-29.3-0.2-44-0.4c0.3,0,0.6-0.2,0.8-0.5c0.1-0.1,0.1-0.3,0.1-0.5v0.3v1.4v0.7v0.3v0.1
			c0-0.1,0-0.2,0-0.2c-0.1-0.3-0.3-0.5-0.6-0.6c-0.1,0-0.2,0-0.2,0H74h0.3l5.5,0.1l11,0.1l22,0.3
			C127.3,212.6,141.9,213.4,156.6,213.1z"/>
	</g>
	<g>
		<path class="st1" d="M166.8,201.6l-101.3,0.7h-0.9v-0.9L63.9,64.9v-1.6h1.6c8.4-0.2,16.9-0.2,25.3-0.3c8.4-0.1,16.9-0.1,25.3-0.1
			c8.4,0,16.9-0.1,25.3-0.1l25.3,0.1h2.1v2l-0.1,17.2l-0.2,17.2l-0.4,34.4l-0.6,34.1L166.8,201.6z M166.5,201.3l-1.3-68.7l-0.4-33.9
			l-0.2-16.9l-0.1-16.9l2,2L141.2,67c-8.4,0-16.9,0-25.3-0.1c-8.4-0.1-16.9,0-25.3-0.1s-16.9-0.2-25.3-0.3l1.6-1.6l-0.7,136.5
			l-0.9-0.9L166.5,201.3z"/>
	</g>
	<g>
		<path class="st1" d="M66.2,62.1l49.4-0.7l49.6-0.6l-1.1,2.5l-14.8-15.1l-0.5-0.5V47l-0.1-4.2l1.8,1.8c-5.7,0.1-11.5,0.2-17.2,0.2
			c-5.7,0.1-11.5,0.1-17.2,0c-5.7,0-11.5-0.2-17.2-0.2c-5.7-0.1-11.5-0.2-17.2-0.4l1.4-1.4L83,47v0.6l-0.4,0.3
			c-2.7,2.4-5.4,4.9-8.1,7.3l-4.1,3.6l-2,1.8l-1,0.9L66.9,62l-0.3,0.2l-0.1,0.1l-0.1,0.1l0,0l0,0C66.5,62.5,65.9,61.9,66.2,62.1
			L66.2,62.1L66.2,62.1z M66.4,62.5L66.4,62.5L66.4,62.5c0.3,0.2-0.4-0.3-0.2-0.3l0,0l0,0l0.1-0.1l0.1-0.1l0.2-0.3l0.5-0.5l0.9-1
			l1.8-2l3.7-4c2.5-2.7,5-5.3,7.5-8l-0.4,0.9l-0.1-4.2v-1.3h1.4c5.7-0.2,11.5-0.3,17.2-0.4c5.7-0.1,11.5-0.2,17.2-0.2
			c5.7-0.1,11.5,0,17.2,0s11.5,0.2,17.2,0.2h1.8V43l-0.1,4.2l-0.5-1.2l14.5,15.5l2.4,2.5h-3.5L116,63.4L66.4,62.5z"/>
	</g>
	<g>
		<path class="st1" d="M153.6,42.7c-13.1-0.2-26.1,0.6-39.2,0.8l-19.6,0.3L85,43.9L80.1,44h-0.6h-0.2h-0.1c0,0-0.2,0-0.3,0
			c-0.4,0-0.8-0.2-1.1-0.5c-0.3-0.2-0.5-0.6-0.7-1C77,42.3,77,42.1,77,41.9v-0.2v-0.6v-1.2v-0.3v-0.1c0-0.1,0-0.2,0-0.3
			c0-0.2,0.1-0.4,0.2-0.6c0.3-0.7,1.1-1.2,1.9-1.2c13.1-0.2,26.1-0.7,39.2-0.4c3.3,0.1,6.5,0.2,9.8,0.3l9.8,0.6l9.8,0.6l4.9,0.2h0.6
			c0.1,0,0.2,0,0.3,0c0.2,0,0.3,0.1,0.4,0.2c0.1,0.1,0.2,0.2,0.3,0.4c0,0.2,0,0.3,0,0.4v0.6v1.2c0,0.2,0,0.4-0.1,0.7
			C154.2,42.5,153.9,42.7,153.6,42.7z M153.6,42.3c0.1,0,0.2-0.1,0.3-0.2c0-0.1,0-0.3,0-0.5v-1.2v-0.6c0-0.1,0-0.2,0-0.2
			s0-0.1-0.1-0.1c-0.1-0.1-0.2-0.1-0.4,0h-0.6l-4.9,0.2l-9.8,0.6l-9.8,0.6c-3.3,0.2-6.5,0.3-9.8,0.3c-13.1,0.3-26.1-0.2-39.2-0.4
			c0.4,0,0.8-0.3,1-0.6c0-0.1,0.1-0.2,0.1-0.3s0-0.1,0-0.1s0,0,0,0.1v0.3v1.2V42v0.1c0-0.1,0-0.2-0.1-0.3c-0.1-0.2-0.2-0.3-0.3-0.5
			c-0.1-0.1-0.3-0.2-0.5-0.2h-0.1h0.1h0.2h0.6l4.9,0.1l9.8,0.1l19.6,0.3C127.5,41.7,140.6,42.5,153.6,42.3z"/>
	</g>
	<g>
		<path class="st1" d="M118.9,29.4c-0.1,1.3-0.1,2.6-0.3,3.9c-0.1,0.7-0.2,1.4-0.5,2.1c-0.2,0.3-0.3,0.7-0.7,1
			c-0.3,0.3-0.8,0.7-1.5,0.7s-1.2-0.3-1.6-0.6c-0.4-0.3-0.6-0.6-0.9-1c-0.4-0.7-0.7-1.3-1-2c-0.5-1.4-0.7-2.8-0.8-4.2
			s-0.1-2.8,0.2-4.3c0.1-0.8,0.4-1.5,0.8-2.3c0.3-0.4,0.5-0.8,1-1.2s1.3-0.8,2.2-0.8c1,0,1.7,0.5,2.1,1c0.4,0.5,0.6,0.9,0.8,1.3
			c0.3,0.8,0.3,1.6,0.3,2.4C119.2,26.8,119,28.1,118.9,29.4z M118.5,29.4c-0.1-1.3-0.6-2.5-1.3-3.5c-0.4-0.5-0.8-1-1.1-1.2
			c-0.2-0.1-0.3-0.2-0.4-0.2c-0.1,0,0.1,0.2,0.4,0.2c0.3,0,0.5-0.1,0.5-0.1s-0.1,0.1-0.2,0.3c-0.2,0.3-0.4,0.8-0.6,1.2
			c-0.4,1-0.7,2.1-0.8,3.3s-0.1,2.4,0.1,3.5c0.1,0.6,0.2,1.1,0.4,1.5c0.2,0.5,0.5,0.7,0.5,0.7c0,0.1,0.5-0.1,0.8-0.5
			c0.4-0.4,0.7-1,1-1.5C118.4,32,118.6,30.7,118.5,29.4z"/>
	</g>
	<g>
		<path class="st1" d="M108,39.1l-0.8-16.2v-0.2l0.1-0.2c0.9-1.7,2-3.1,3.5-4.3s3.4-2,5.5-1.9c2,0.1,3.9,0.9,5.4,1.9
			c1.6,1,2.9,2.3,4.1,3.6l0.4,0.4v0.7l0.4,8.1c0.1,2.7,0.1,5.4-0.1,8.1l-0.1,2.1l-1.9-0.1c-1.5-0.1-3-0.1-4.4-0.3
			c-1.5-0.1-2.9-0.3-4.3-0.4C113,39.8,110.4,39.5,108,39.1z M108.3,38.8c3.1-0.4,5.9-0.8,8.6-1.1c1.3-0.2,2.6-0.3,3.9-0.4
			c1.3-0.1,2.5-0.2,3.8-0.3l-2,2c-0.1-2.7-0.2-5.4-0.1-8.1l0.4-8.1l0.4,1.1c-1-1.2-2.1-2.4-3.3-3.3c-1.2-0.9-2.5-1.6-3.9-1.7
			c-1.4-0.2-2.7,0.2-4,1.1c-1.2,0.8-2.3,2-3.1,3.3l0.1-0.4L108.3,38.8z"/>
	</g>
	<g>
		<path class="st1" d="M65.5,203.1l50.3-0.8l50.3-0.6l5.3-0.1l-4.4,3l-5.6,3.8l-0.4,0.3h-0.5l-22.6,0.3c-7.5,0.1-15.1,0.1-22.6,0
			l-11.3-0.2l-11.3-0.3c-7.5-0.2-15.1-0.5-22.6-1h-0.2l-0.1-0.1l-2.1-2l-1-1l-1-0.9v-0.4H65.5z M65.5,203.1c0.3,0.1,0.3,0.1,0.4,0.2
			l0.3,0.2l0.6,0.4l1.2,0.8c0.8,0.6,1.5,1.2,2.3,1.7l-0.4-0.1c7.5-0.4,15.1-0.7,22.6-0.9l11.3-0.3l11.3-0.2c7.5-0.1,15.1-0.1,22.6,0
			l22.6,0.4l-0.9,0.3l5.7-3.6l0.9,2.9l-50.3-0.6l-50.3-0.8L65.5,203.1L65.5,203.1z"/>
	</g>
	<g>
		<path class="st1" d="M80.7,136.1c0,4.6,0.9,9.3,2.9,13.5c1.9,4.2,4.8,8,8.2,11c6.9,6.1,16.1,9.4,25.2,9.2
			c9.1-0.1,18.1-3.6,24.6-9.8c3.3-3.1,5.9-6.8,7.7-10.9c1.8-4.1,2.7-8.5,2.6-13c-0.1-4.4-1-8.8-2.9-12.8s-4.6-7.6-7.8-10.5
			c-6.5-6-15.3-9.2-24.1-9.3c-4.4-0.1-8.9,0.6-13.1,2.1c-4.2,1.4-8.2,3.6-11.7,6.6c-3.4,2.9-6.4,6.6-8.4,10.7
			C81.9,126.9,80.8,131.5,80.7,136.1z M80.3,136.1c-0.1-9.4,3.7-18.8,10.5-25.6c3.4-3.4,7.4-6.2,11.9-8.1c4.5-1.9,9.4-2.9,14.3-3
			c4.9,0,9.8,0.8,14.4,2.6c4.6,1.8,8.8,4.5,12.4,7.8c3.6,3.4,6.4,7.5,8.4,12s2.9,9.4,2.9,14.3c-0.1,4.9-1.1,9.7-3.2,14.2
			c-2,4.4-5,8.4-8.6,11.6c-7.1,6.5-16.8,10-26.3,9.9c-4.8-0.1-9.5-1.1-13.9-2.8c-4.4-1.8-8.4-4.4-11.8-7.7
			C84.4,154.8,80.4,145.5,80.3,136.1z"/>
	</g>
</g>
</svg>
