<?xml version="1.0" encoding="utf-8"?>
<!-- Generator: Adobe Illustrator 21.0.2, SVG Export Plug-In . SVG Version: 6.00 Build 0)  -->
<svg version="1.1" id="Layer_1" xmlns="http://www.w3.org/2000/svg" xmlns:xlink="http://www.w3.org/1999/xlink" x="0px" y="0px"
	 viewBox="0 0 242 242" style="enable-background:new 0 0 242 242;" xml:space="preserve">
<style type="text/css">
	.st0{fill:#21BCBF;}
	.st1{fill:#FCF9E2;}
</style>
<g>
	<rect x="-0.5" y="-0.4" class="st0" width="243" height="243"/>
</g>
<g>
	<g>
		<path class="st1" d="M101.6,23.9c2.4,0,4.9-0.2,7.3-0.6c2.4-0.4,4.9-1,7.3-1.3c4.9-0.7,9.8-0.6,14.7,0.2h-0.3c0.3,0,0.4,0,0.6,0
			c0.2,0,0.4,0,0.5,0.1c0.3,0.1,0.7,0.1,1,0.3c0.7,0.2,1.3,0.7,1.8,1.2c1,1.2,1.2,2.5,1.1,3.6c0,0.6-0.1,1-0.1,1.5s-0.1,0.9-0.1,1.4
			c-0.1,0.9-0.1,1.8-0.1,2.8c0,1.8,0,3.7,0.2,5.5v0.3V39v0.2v0.3c0,0.3-0.1,0.7-0.2,1c-0.2,0.6-0.6,1.2-1.1,1.6
			c-0.9,0.9-2,1.4-3.1,1.7h-0.3c-2.4,0.3-4.8,0.6-7.2,0.8c-2.4,0.2-4.8,0.3-7.2,0.4s-4.8,0.2-7.2,0.3c-2.4,0-4.8,0-7.2-0.1h-0.4
			h-0.1c-0.5-0.1-0.7-0.2-1-0.3c-0.3-0.1-0.6-0.2-0.9-0.3c-0.6-0.2-1.1-0.5-1.7-0.9c-0.6-0.4-1.1-0.9-1.6-1.5s-0.9-1.4-1.1-2.3
			l-0.1-0.6v-0.2c0.2-1.7,0.6-3.5,0.9-5.2c0.3-1.7,0.7-3.5,1-5.2v0.2c0-0.7,0.1-1.3,0.3-1.9c0.2-0.6,0.5-1.1,1-1.5
			c0.4-0.4,0.9-0.7,1.5-0.9c0.3-0.1,0.5-0.2,0.8-0.3L101.6,23.9z M101.6,24.5l-0.7,0.2c-0.2,0.1-0.5,0.1-0.7,0.3
			c-0.4,0.2-0.8,0.5-1.1,0.9s-0.4,0.8-0.5,1.2s0,0.9,0.1,1.3v0.2c0.3,1.7,0.6,3.5,1,5.2c0.3,1.7,0.7,3.5,0.9,5.2l-0.1-0.7
			c0.1,0,0.2,0,0.2,0.1l0.5,0.2c0.2,0.1,0.5,0.2,0.8,0.3c0.1,0,0.3,0.1,0.4,0.1c0.1,0,0.3,0.1,0.3,0.1h-0.5c2.4-0.1,4.8-0.2,7.2-0.1
			c2.4,0,4.8,0.2,7.2,0.3c2.4,0.1,4.8,0.2,7.2,0.4c2.4,0.2,4.8,0.5,7.2,0.8h-0.3c1.5,0,2.7-0.5,2.8-1.8c0.1-1.8,0.2-3.7,0.2-5.5
			c0-0.9,0-1.8-0.1-2.8c0-0.5-0.1-0.9-0.1-1.4c0-0.4-0.1-1-0.2-1.3c-0.2-0.7-0.5-1.3-0.8-1.4c-0.2-0.1-0.3-0.1-0.5-0.1
			c-0.1,0-0.2,0-0.3,0s-0.1,0-0.2,0c0,0-0.1,0-0.1,0.1h-0.3c-4.9,0.8-9.7,0.9-14.6,0.2c-2.4-0.4-4.9-0.9-7.4-1.3
			C106.5,24.7,104,24.5,101.6,24.5z"/>
	</g>
	<g>
		<path class="st1" d="M100.7,41.8l15.2-0.8c5.2-0.3,10.5-0.5,15.8-0.7h1.6l0.2,1.7c0.4,4.7,0.7,9.4,1.1,14.1v-0.3
			c0.5,2.3,1.1,4.7,1.6,7c0.6,2.3,1.2,4.6,1.9,6.9s1.4,4.5,2.2,6.7s1.7,4.3,2.8,5.9l0.2,0.3l0.1,0.3c1.4,3.8,2.7,7.6,3.9,11.4
			c0.6,1.9,1.1,3.9,1.6,6l0.3,1.6c0.1,0.6,0.1,1.1,0.2,1.8v1v0.8l-0.1,1.5c-0.2,4-0.4,7.9-0.6,11.9l-0.7,11.9l-1.6,23.8
			c-0.3,4-0.5,7.9-0.7,11.9c-0.1,2-0.1,3.9-0.1,5.9c0,1,0.1,2,0.2,2.9c0.1,0.9,0.2,1.9,0.4,2.7v0.1v0.1c0,2.7,0.1,5.3,0.2,8l0.2,8
			c0.1,2.7,0.2,5.3,0.3,8l0.3,8v-0.3c0.4,1.8-0.4,3.3-1.4,4.3s-2.2,1.6-3.4,2.1s-2.4,0.7-3.5,1c-1.2,0.3-2.3,0.5-3.5,0.8
			c-4.6,0.9-9.3,1.6-14,2s-9.5,0.4-14.2,0c-4.8-0.4-9.5-1.2-14.2-2.5l0.3,0.1c-0.6-0.1-1-0.2-1.5-0.4c-0.5-0.1-0.9-0.3-1.4-0.5
			c-0.9-0.4-1.8-0.9-2.7-1.5c-0.9-0.6-1.7-1.5-2.4-2.5c-0.7-1-1.1-2.2-1.3-3.4v-0.2v-0.3l0.4-25.7v-0.7l0.3-0.7
			c0.3-0.6,0.7-1.5,1-2.3s0.5-1.6,0.7-2.4c0.2-0.8,0.3-1.6,0.3-2.2c0-0.7-0.1-1.3-0.2-1.7l-0.1-0.4v-0.4l-0.7-14.9l-0.4-7.4
			l-0.3-7.4l-0.6-14.9l-0.5-14.9v0.2c-0.2-1.4-0.2-2.8-0.3-4.1c0-1.4,0-2.7,0.1-4.1c0.1-1.4,0.2-2.8,0.6-4.3
			c0.3-1.4,0.7-2.9,1.8-4.5l-0.3,0.5c2.1-5.3,4.3-10.6,6.4-15.8c2.2-5.3,4.5-10.5,6.7-15.7l-0.1,0.5c0.3-4,0.6-8,0.9-12L100.7,41.8z
			 M101.1,42.2l0.2,11.8c0.1,3.8,0.2,7.6,0.2,11.3v0.2l-0.1,0.3l-5.6,16.1C94,87.3,92.1,92.7,90.2,98l-0.1,0.2l-0.2,0.3
			c-0.4,0.6-0.7,1.7-0.9,2.8s-0.3,2.3-0.3,3.5s0,2.4,0.1,3.7c0.1,1.2,0.2,2.5,0.4,3.7v0.1v0.2l1,14.8l0.9,14.9l0.4,7.4l0.4,7.4
			l0.7,14.9l-0.2-0.9c0.4,1.4,0.5,2.8,0.4,4s-0.3,2.3-0.6,3.4c-0.3,1.1-0.6,2.1-1,3.1s-0.8,1.9-1.3,3l0.4-1.3l-1,25.7v-0.5
			c0.1,0.4,0.2,0.8,0.4,1.2c0.3,0.4,0.6,0.8,1.1,1.1c0.5,0.4,1,0.7,1.6,1c0.3,0.1,0.6,0.3,0.9,0.4c0.3,0.1,0.7,0.2,0.9,0.3l0.3,0.1
			l0,0c4.2,1.4,8.6,2.3,13.1,2.9c4.5,0.6,9,0.8,13.6,0.7s9.1-0.5,13.6-1.1c1.1-0.2,2.3-0.3,3.4-0.6c1.1-0.2,2.2-0.4,3.2-0.7
			s1.9-0.8,2.5-1.4c0.3-0.3,0.6-0.6,0.7-1c0.1-0.2,0.1-0.4,0.2-0.5c0-0.1,0-0.2,0-0.3s0-0.2,0-0.2V210v-8c0-2.7,0-5.3-0.1-8l-0.1-8
			c0-2.7-0.1-5.3-0.2-8v0.3c-0.3-1.1-0.4-2.1-0.6-3.1c-0.1-1-0.2-2-0.2-3c-0.1-2-0.2-4-0.2-6s0.1-4,0.1-6v-6l0.1-23.9l0.1-11.9
			c0.1-4,0.1-8,0.3-11.9V105v-0.7v-0.5c0-0.4-0.1-0.8-0.1-1.2l-0.2-1.3c-0.4-1.8-0.9-3.7-1.4-5.5c-1.1-3.7-2.3-7.5-3.6-11.1l0.3,0.6
			c-1.6-2.5-2.5-4.8-3.4-7.2c-0.8-2.4-1.5-4.8-2.1-7.1c-0.6-2.4-1.2-4.8-1.7-7.2c-0.5-2.4-1-4.8-1.4-7.2v-0.2v-0.1
			c-0.1-4.7-0.3-9.4-0.3-14.1l1.7,1.6c-4.9-0.2-9.9-0.4-15-0.7L101.1,42.2z"/>
	</g>
	<g>
		<path class="st1" d="M91.2,90.1c2.4-0.7,4.8-0.7,7.2-0.5c2.4,0.3,4.7,0.8,7,1.8c2.2,1,4.1,2.7,5.8,4.6c1.6,1.9,3.2,3.6,4.8,5.5
			v0.1c0.8,1.1,1.9,2.2,3,3.1c1.2,0.9,2.3,1.7,3.5,2.5c1.1,0.8,2.3,1.6,3.5,2.2c1.2,0.6,2.4,1.2,3.6,1.7c1.2,0.5,2.4,0.9,3.6,1.4
			c1.2,0.4,2.5,0.7,3.9,1c2.7,0.5,5.5,0.7,8.7,0.9l0.2,0.6c-2.5,2-5.7,3.2-9,3.6c-3.3,0.4-6.9-0.1-9.9-1.6c-1.6-0.7-3-1.7-4.3-2.7
			s-2.5-2.1-3.6-3.4c-1-1.3-1.9-2.6-2.7-4s-1.4-2.8-2.2-4.3v0.1c-1.1-1.9-2.8-3.4-4.8-4.2l-1.6-0.6c-0.5-0.2-1.1-0.3-1.6-0.5
			s-1-0.3-1.5-0.5s-1-0.4-1.5-0.5c-2-0.8-4-1.6-6-2.6c-2-0.9-4.1-1.9-6.2-3.1L91.2,90.1z"/>
	</g>
	<g>
		<path class="st1" d="M89.1,129.9c2.4-0.7,4.8-0.7,7.2-0.5c2.4,0.3,4.7,0.8,7,1.8c2.2,1,4.1,2.7,5.8,4.6c1.6,1.9,3.2,3.6,4.8,5.5
			v0.1c0.8,1.1,1.9,2.2,3,3.1c1.2,0.9,2.3,1.7,3.5,2.5c1.1,0.8,2.3,1.6,3.5,2.2c1.2,0.6,2.4,1.2,3.6,1.7c1.2,0.5,2.4,0.9,3.6,1.4
			c1.2,0.4,2.5,0.7,3.9,1c2.7,0.5,5.5,0.7,8.7,0.9l0.2,0.6c-2.5,2-5.7,3.2-9,3.6c-3.3,0.4-6.9-0.1-9.9-1.6c-1.6-0.7-3-1.7-4.3-2.7
			s-2.5-2.1-3.6-3.4c-1-1.3-1.9-2.6-2.7-4s-1.4-2.8-2.2-4.3v0.1c-1.1-1.9-2.8-3.4-4.8-4.2l-1.6-0.6c-0.5-0.2-1.1-0.3-1.6-0.5
			s-1-0.3-1.5-0.5s-1-0.4-1.5-0.5c-2-0.8-4-1.6-6-2.6c-2-0.9-4.1-1.9-6.2-3.1L89.1,129.9z"/>
	</g>
</g>
</svg>
