<?xml version="1.0" encoding="utf-8"?>
<!-- Generator: Adobe Illustrator 21.0.2, SVG Export Plug-In . SVG Version: 6.00 Build 0)  -->
<svg version="1.1" id="Layer_1" xmlns="http://www.w3.org/2000/svg" xmlns:xlink="http://www.w3.org/1999/xlink" x="0px" y="0px"
	 viewBox="0 0 244 243" style="enable-background:new 0 0 244 243;" xml:space="preserve">
<style type="text/css">
	.st0{fill:#224760;}
	.st1{fill:#D8EFF5;}
</style>
<g>
	<rect x="0.6" y="0.6" class="st0" width="243" height="243"/>
</g>
<g>
	<g>
		<path class="st1" d="M102.1,22.6h4.1c1.4,0,2.7,0,4.1-0.1c2.7-0.1,5.5-0.2,8.2-0.4s5.5-0.3,8.2-0.5c2.7-0.1,5.5-0.2,8.2-0.3h-0.2
			c0.7-0.1,1.1,0,1.6,0.1s1,0.3,1.5,0.6c0.9,0.5,1.6,1.4,2.1,2.3c0.5,0.9,0.6,1.8,0.8,2.7c0,0.4,0.1,0.9,0.1,1.3v1.3v-0.2l0.4,6.7
			v-0.2c0.1,0.9,0.1,1.5,0.1,2.3c-0.1,0.8-0.2,1.5-0.6,2.4c-0.4,0.8-1,1.6-1.8,2.2c-0.8,0.6-1.7,0.8-2.6,1l0,0h-0.2l-16.7,0.5
			c-2.8,0.1-5.6,0.1-8.3,0c-2.8,0-5.6-0.1-8.3-0.4h-0.3l0,0c-0.4-0.1-0.5-0.1-0.8-0.2c-0.2-0.1-0.4-0.2-0.6-0.3
			c-0.4-0.2-0.8-0.4-1.2-0.7c-0.7-0.6-1.4-1.3-1.9-2.1s-0.8-1.7-0.9-2.6c-0.1-0.4,0-0.8-0.1-1.3c0-0.4,0.1-0.8,0.1-1.2v0.2
			c0-1.3,0.2-2.5,0.3-3.7s0.4-2.4,0.7-3.6c0.3-1.2,0.6-2.4,1.2-3.5C99.8,23.8,100.7,22.7,102.1,22.6z M102.1,23.1
			c-1.1,0.2-1.8,1.1-2.2,2.2c-0.4,1-0.6,2.2-0.7,3.3c-0.1,1.2,0,2.3,0,3.5c0.1,1.1,0.3,2.3,0.5,3.4v0.2c0,0.3,0.1,0.6,0.1,0.8
			c0.1,0.3,0.1,0.5,0.2,0.8c0.2,0.5,0.4,0.9,0.7,1.2s0.7,0.6,1.1,0.7c0.2,0.1,0.4,0.2,0.6,0.2c0.1,0,0.2,0.1,0.3,0.1s0.2,0,0.2,0
			h-0.3c2.8-0.2,5.6-0.3,8.3-0.4c2.8-0.1,5.6,0,8.3,0l16.7,0.5h-0.2c0.3-0.1,0.6-0.1,0.8-0.2c0.2-0.1,0.4-0.3,0.5-0.6
			c0.2-0.3,0.3-0.7,0.4-1.1c0.1-0.4,0.1-1,0.1-1.3v-0.2l-0.1-6.7v-0.1v-0.1l0.1-1c0-0.3,0-0.6,0-1c-0.1-0.6-0.2-1.2-0.4-1.7
			s-0.5-0.9-0.9-1.1c-0.2-0.1-0.4-0.2-0.6-0.3c-0.2-0.1-0.5-0.1-0.6-0.1h-0.2c-2.7-0.1-5.4-0.1-8.2-0.3c-2.7-0.1-5.5-0.3-8.2-0.5
			s-5.5-0.3-8.2-0.4c-1.4,0-2.7,0-4.1-0.1L102.1,23.1z"/>
	</g>
	<g>
		<path class="st1" d="M106.2,42.8c0,0.1,0.1,0,0.1,0.1v0.3l-0.1,0.6l-0.1,1.1l-0.2,2.3c-0.2,1.5-0.4,3-0.6,4.5c-0.4,3-0.9,6-1.5,9
			s-1.3,5.9-2.2,8.9c-0.4,1.5-1,2.9-1.5,4.3l-1.6,4.2l-12.8,34l0.1-0.3l-0.2,32.6l-0.5-1c1.3,0.9,2.2,1.9,3.1,3.2
			c0.8,1.2,1.4,2.7,1.5,4.3s-0.3,3.2-1,4.5c-0.2,0.4-0.4,0.7-0.6,1l-0.6,0.9c-0.5,0.6-1,1.1-1.5,1.6l0.4-0.9l-0.5,49.3v0.1v0.1
			c-0.1,1-0.1,2.2,0.1,3.3c0.1,1.1,0.4,2.2,0.8,3.1c0.4,0.9,1,1.7,1.8,2.3c0.7,0.6,1.7,0.8,2.7,1h-0.2l52.8-0.4h0.2
			c0.1,0,0.5,0,0.7,0c0.3,0,0.5,0,0.8-0.1c0.5-0.1,1.1-0.2,1.6-0.4c1-0.3,1.9-0.8,2.6-1.5c0.2-0.1,0.4-0.3,0.5-0.5
			c0.2-0.2,0.3-0.4,0.5-0.6l0.4-0.6l0.3-0.7l0.2-0.4l0.1-0.4l0.2-0.8c0.1-0.5,0.2-1.1,0.3-1.7v0.3l-0.8-26.1l-0.7-26.1l1.3,2.2
			c-0.5-0.3-0.8-0.5-1.1-0.8s-0.6-0.5-0.9-0.8c-0.3-0.3-0.6-0.6-0.8-0.9c-0.2-0.3-0.5-0.7-0.7-1.1c-0.9-1.5-1.3-3.5-1.1-5.3
			s1-3.3,1.9-4.6c0.5-0.6,0.9-1.2,1.4-1.8l1.5-1.5l-0.8,1.9l0.3-14.8c0.1-4.9,0.3-9.8,0.4-14.8l0.2,0.9c-3.1-8.3-6.1-16.5-9.2-24.8
			l-4.5-12.4l-4.5-12.5l-0.1-0.2v-0.2c-0.4-3.8-0.7-7.7-1-11.5l-0.4-5.8c-0.1-1.9-0.2-3.8-0.2-5.9l1.1,1.1L106.2,42.8z M105.8,42.5
			l27.4-0.9h1l0.1,1.1c0.1,1.8,0.3,3.7,0.5,5.6l0.7,5.7c0.5,3.8,1,7.6,1.5,11.4V65l5,12.3l4.9,12.3c3.3,8.2,6.5,16.4,9.7,24.6
			l0.2,0.4v0.5c0,4.9-0.1,9.9-0.2,14.8l-0.2,14.8v1l-0.8,0.8l-1.2,1.2c-0.3,0.4-0.6,0.8-1,1.2c-0.5,0.8-0.9,1.6-1,2.4
			c-0.1,0.7,0.1,1.4,0.5,2c0.1,0.2,0.2,0.3,0.3,0.5c0.2,0.2,0.3,0.3,0.4,0.5c0.2,0.2,0.3,0.3,0.5,0.5c0.2,0.1,0.4,0.3,0.4,0.3
			l1.2,0.9v1.3l0.4,26.1l0.3,26.1v0.2v0.1c-0.1,0.7-0.2,1.5-0.4,2.2l-0.3,1.1l-0.2,0.6l-0.3,0.5c-0.6,1.5-1.6,2.8-2.8,3.9
			c-1.2,1.1-2.7,1.9-4.2,2.4c-0.8,0.2-1.5,0.4-2.3,0.5c-0.4,0.1-0.8,0.1-1.2,0.1s-0.7,0-1.3,0h0.2l-52.8-0.4h-0.2h-0.1
			c-1.5-0.3-3-0.7-4.2-1.7s-2.2-2.3-2.8-3.6c-0.6-1.3-0.9-2.7-1-4.1c-0.1-1.4-0.2-2.7,0-4.1v0.2l1.1-49.3v-0.5l0.4-0.4l1.2-1.3
			l0.5-0.7c0.2-0.2,0.4-0.5,0.5-0.7c0.6-1,0.8-2.1,0.8-3.2c0-1.1-0.4-2.2-1.1-3.2c-0.6-1-1.5-1.9-2.4-2.6l-0.5-0.4v-0.6l0.8-32.6
			v-0.2l0.1-0.1l13.4-33.8l1.7-4.2c0.5-1.4,1.1-2.8,1.6-4.2c0.9-2.8,1.7-5.8,2.3-8.7c0.6-2.9,1.2-5.9,1.6-8.9c0.2-1.5,0.4-3,0.6-4.5
			l0.3-2.2l0.1-1.1l0.1-0.6v-0.3C105.7,42.8,105.8,42.6,105.8,42.5z"/>
	</g>
	<g>
		<path class="st1" d="M104.9,65.4c2.4-0.4,4.8-0.7,7.2-1l3.6-0.4l3.6-0.3c1.2-0.1,2.4-0.3,3.6-0.5c1.2-0.2,2.4-0.2,3.6,0
			c2.4,0.3,4.8,0.9,7.2,2.2v0.5c-2.4,1.4-4.8,1.9-7.2,2.2c-1.2,0.1-2.4,0.1-3.6,0c-1.2-0.2-2.4-0.4-3.6-0.5l-3.6-0.3l-3.6-0.4
			c-2.4-0.3-4.8-0.6-7.2-1V65.4z"/>
	</g>
	<g>
		<path class="st1" d="M123.2,119.1c-0.1,2.4-0.9,4.7-2.5,6.7c-1.5,1.9-4,3.3-6.7,3.5c-2.7,0.1-5.4-0.8-7.5-2.7
			c-2-1.9-3.3-4.6-3.4-7.5c-0.1-2.8,0.9-5.8,2.9-8s5.1-3.5,8-3.4c1.5,0.1,3,0.5,4.2,1.3c1.2,0.7,2.3,1.8,3,2.9
			C122.8,114.1,123.3,116.7,123.2,119.1z M122.7,119.1c-0.1-1.1-0.4-2.2-1-3.2c-0.6-0.9-1.4-1.7-2.3-2.2c-1.8-1-3.7-1.2-5.3-1
			c-1.7,0.2-3.2,0.8-4.5,1.9c-1.3,1.1-2.3,2.7-2.4,4.5c-0.1,1.8,0.5,3.7,1.8,5.1c1.2,1.4,3.1,2.4,5.1,2.5s4.2-0.4,5.9-1.7
			C121.7,123.6,122.8,121.3,122.7,119.1z"/>
	</g>
	<g>
		<path class="st1" d="M129.7,146.4c-1.4,0.7-3,1-4.7,0.9c-1.7-0.2-3.5-1.1-4.5-2.6c-1.1-1.5-1.5-3.6-1.1-5.5s1.6-3.8,3.4-4.9
			c1.7-1.1,4-1.7,6.1-1.2c2.2,0.4,4.2,1.9,5.1,3.9c0.5,1,0.7,2.1,0.6,3.2c-0.1,1.1-0.4,2.1-0.9,2.9
			C132.6,144.6,131.2,145.6,129.7,146.4z M129.5,145.9c1.3-0.8,1.8-2.4,1.6-3.7s-0.9-2.2-1.5-2.9s-1.2-1.2-2.1-1.6
			c-0.8-0.4-1.9-0.5-2.8-0.1c-1.9,0.8-3.1,3.4-2.1,5.7c0.5,1.1,1.3,2.2,2.6,2.9C126.5,146.9,128.2,146.8,129.5,145.9z"/>
	</g>
	<g>
		<path class="st1" d="M139.3,118.5c-1.4,0.7-3,1-4.7,0.9c-1.7-0.2-3.5-1.1-4.5-2.6c-1.1-1.5-1.5-3.6-1.1-5.5s1.6-3.8,3.4-4.9
			c1.7-1.1,4-1.7,6.1-1.2c2.2,0.4,4.2,1.9,5.1,3.9c0.5,1,0.7,2.1,0.6,3.2c-0.1,1.1-0.4,2.1-0.9,2.9
			C142.2,116.7,140.8,117.7,139.3,118.5z M139.1,118c1.3-0.8,1.8-2.4,1.6-3.7s-0.9-2.2-1.5-2.9s-1.2-1.2-2.1-1.6
			c-0.8-0.4-1.9-0.5-2.8-0.1c-1.9,0.8-3.1,3.4-2.1,5.7c0.5,1.1,1.3,2.2,2.6,2.9C136.1,119,137.8,118.9,139.1,118z"/>
	</g>
	<g>
		<path class="st1" d="M106.3,30c0.4,1,0.7,2.1,1,3.1l0.4,1.6l0.3,1.6c0.1,0.5,0.3,1,0.5,1.6c0.2,0.5,0.2,1,0,1.6
			c-0.2,0.5-0.4,1-0.7,1.6c-0.3,0.5-0.8,1-1.5,1.6h-0.5c-0.7-0.5-1.2-1-1.5-1.6c-0.4-0.5-0.6-1-0.7-1.6c-0.1-0.5-0.1-1,0-1.6
			c0.2-0.5,0.4-1,0.5-1.6l0.3-1.6l0.4-1.6c0.3-1,0.6-2.1,1-3.1H106.3z"/>
	</g>
	<g>
		<path class="st1" d="M114,25c0.4,1.5,0.7,2.9,1,4.4l0.4,2.2l0.3,2.2c0.1,0.7,0.3,1.5,0.5,2.2s0.2,1.5,0,2.2
			c-0.3,1.5-0.9,2.9-2.2,4.4h-0.5c-1.4-1.5-1.9-2.9-2.2-4.4c-0.1-0.7-0.1-1.5,0-2.2c0.2-0.7,0.4-1.5,0.5-2.2l0.3-2.2l0.4-2.2
			c0.3-1.5,0.6-2.9,1-4.4H114z"/>
	</g>
	<g>
		<path class="st1" d="M121.8,31.1c0.4,1,0.7,2.1,1,3.1l0.4,1.6l0.3,1.6c0.1,0.5,0.3,1,0.5,1.6c0.2,0.5,0.2,1,0,1.6
			c-0.2,0.5-0.4,1-0.7,1.6c-0.3,0.5-0.8,1-1.5,1.6h-0.5c-0.7-0.5-1.2-1-1.5-1.6c-0.4-0.5-0.6-1-0.7-1.6c-0.1-0.5-0.1-1,0-1.6
			c0.2-0.5,0.4-1,0.5-1.6l0.3-1.6l0.4-1.6c0.3-1,0.6-2.1,1-3.1H121.8z"/>
	</g>
</g>
</svg>
