<?xml version="1.0" encoding="utf-8"?>
<!-- Generator: Adobe Illustrator 21.0.2, SVG Export Plug-In . SVG Version: 6.00 Build 0)  -->
<svg version="1.1" id="Layer_1" xmlns="http://www.w3.org/2000/svg" xmlns:xlink="http://www.w3.org/1999/xlink" x="0px" y="0px"
	 viewBox="0 0 243 244" style="enable-background:new 0 0 243 244;" xml:space="preserve">
<style type="text/css">
	.st0{fill:#F0592E;}
	.st1{fill:#F8F9E1;}
</style>
<g>
	<rect x="-0.4" y="0.6" class="st0" width="243" height="243"/>
</g>
<g>
	<g>
		<path class="st1" d="M95.3,39.9c2.7-0.4,5.6-0.7,8.4-1c2.9-0.3,5.8-0.6,8.7-0.8s5.9-0.4,8.9-0.6c3-0.2,6-0.3,9-0.4l-2.8,2.8
			c0-1.8-0.1-3.7-0.1-5.5s-0.1-3.7-0.1-5.5c0-1.2-0.5-2.6-1-3.1c-0.3-0.3-0.5-0.4-0.9-0.6c-0.4-0.2-0.9-0.1-1.6-0.1h-0.4
			c-7.2-0.1-14.3-0.3-21.5-0.8h-0.3l0,0c0,0-0.3,0-0.4-0.1c-0.2,0-0.3,0-0.5,0c-0.3,0-0.7,0-1,0.1c-0.6,0.1-1.1,0.3-1.5,0.7
			s-0.8,0.9-1,1.6c-0.1,0.3-0.2,0.7-0.3,1.1l-0.2,1.4c-0.3,1.8-0.5,3.6-0.8,5.5l-0.4,2.7C95.6,38.1,95.3,39.1,95.3,39.9z M95.3,39.9
			c-0.2-0.4-0.2-0.9-0.3-1.4l-0.2-1.4c-0.1-0.9-0.2-1.8-0.3-2.8c-0.2-1.8-0.3-3.7-0.4-5.5c-0.2-1.6-0.3-4.3,1.4-6.3
			c0.8-1,2-1.7,3.1-2.1c0.6-0.2,1.2-0.3,1.7-0.4c0.3,0,0.6-0.1,0.9-0.1c0.3,0,0.6,0,1,0h-0.3c7.2-0.4,14.3-0.7,21.5-0.8H123
			c1.2-0.1,2.5-0.2,3.9,0.2s2.8,1.2,3.7,2.3c1,1.1,1.6,2.3,1.9,3.5c0.2,0.6,0.3,1.2,0.4,1.8c0,0.3,0.1,0.6,0.1,0.9v0.3v0.3v0.3
			c0,1.8,0,3.7-0.1,5.5c0,1.8-0.1,3.7-0.1,5.5l-0.1,2.8l-2.7-0.1c-2.8-0.1-5.7-0.2-8.5-0.4c-2.9-0.1-5.7-0.3-8.6-0.6
			c-2.9-0.2-5.8-0.5-8.8-0.8C101.4,40.7,98.4,40.3,95.3,39.9z"/>
	</g>
	<g>
		<path class="st1" d="M100.4,42.7l0.4,11.5v0.1l-0.1,0.1l-13,15.9l0,0l-0.1,0.1c-0.8,0.8-1.5,1.9-2.2,2.9c-0.6,1.1-1.2,2.2-1.6,3.4
			c-0.9,2.4-1.4,4.8-1.6,7.3c-0.1,1.3-0.1,2.5-0.2,3.8c0.1,1.3,0.1,2.6,0.1,3.9l0.1,7.9c0.2,10.5,0.4,21,0.5,31.5l-0.2-0.8
			c0.5,1.4,0.9,2.6,1.2,3.9c0.3,1.3,0.5,2.7,0.6,4.1c0.1,1.4,0,2.8-0.3,4.3c-0.4,1.5-1,3-2.1,4.3l0.4-0.6c-0.3,0.6-0.5,1.4-0.7,2.1
			c-0.2,0.7-0.3,1.5-0.4,2.2s-0.1,1.4,0.1,1.9c0.1,0.5,0.3,0.9,0.5,1.1l0.1,0.2l0.1,0.1c0.3,0.5,0.5,0.9,0.7,1.4
			c0.2,0.4,0.4,0.9,0.5,1.4c0.3,0.9,0.6,1.9,0.6,3c0.1,1.1,0,2.2-0.4,3.3c-0.3,1.1-1,2.1-1.7,3l0.4-0.6c-0.1,0.1-0.2,0.5-0.3,0.8
			c-0.1,0.3-0.2,0.6-0.3,0.9c-0.1,0.6-0.2,1.2-0.2,1.7c0,1.1,0.3,1.9,0.8,2.5l0.4,0.5c0.2,0.2,0.3,0.5,0.5,0.7
			c0.3,0.5,0.5,0.9,0.7,1.4c0.4,1,0.7,2.1,0.7,3.2c0.1,2.3-0.8,4.4-2,5.9l0.3-0.6c-0.2,0.5-0.4,1.3-0.6,1.9
			c-0.2,0.7-0.3,1.3-0.3,1.9c0,0.6,0,1.2,0.1,1.6c0.1,0.4,0.2,0.7,0.4,0.8l0.3,0.3l0.1,0.2l0.1,0.3l0.1,0.2c0.1,0.1,0.1,0.3,0.2,0.4
			c0.1,0.3,0.2,0.5,0.3,0.8c0.1,0.5,0.3,1,0.3,1.6c0.1,1.1,0.2,2.1,0,3.2c-0.1,1-0.4,2.1-0.7,3.1c-0.3,1-0.8,1.9-1.3,2.8l0.4-1.5
			l0.1,15.8l-2.9-2.9l33.8-0.1l33.8,0.1l-2.9,2.9v-16.6l0.6,1.8c-0.4-0.5-0.7-1-1-1.4c-0.3-0.5-0.6-1-0.9-1.5c-0.5-1-1-2.1-1.3-3.3
			s-0.5-2.5-0.3-4s0.9-3,1.9-4.1l-0.2,0.3c0,0,0.1-0.1,0.1-0.2c0.1-0.1,0.1-0.3,0.2-0.4c0.1-0.3,0.2-0.6,0.3-0.8
			c0.1-0.6,0.2-1.2,0.2-1.8s-0.1-1.2-0.4-1.7c-0.2-0.6-0.5-1.1-0.9-1.7l-0.2-0.3V180c-0.3-0.6-0.4-0.9-0.5-1.4
			c-0.1-0.4-0.3-0.9-0.4-1.3c-0.2-0.9-0.4-1.8-0.4-2.7c-0.1-0.9-0.1-1.9,0.1-2.8c0.1-1,0.4-1.9,0.7-2.8v-0.1l0.1-0.1
			c0.1-0.1,0.2-0.5,0.3-0.7c0.1-0.3,0.2-0.6,0.2-0.8c0.1-0.6,0.2-1.1,0.2-1.7c0-0.6,0-1.1-0.1-1.6s-0.3-0.9-0.5-1.4l0.1,0.2
			c-0.2-0.3-0.3-0.5-0.5-0.8c-0.1-0.2-0.2-0.5-0.4-0.7c-0.2-0.5-0.4-1-0.6-1.5c-0.3-1-0.6-2.1-0.6-3.2c-0.1-1.1,0-2.3,0.4-3.4
			c0.1-0.6,0.4-1.1,0.6-1.6l0.6-1.2c0.7-1.3,1.1-2.8,1.3-4.1c0.1-0.7,0-1.3-0.1-1.8s-0.4-0.9-0.6-1.3l-0.3-0.4l-0.1-0.1
			c-0.3-0.7-0.5-1.2-0.6-1.7c-0.2-0.6-0.3-1.1-0.4-1.7c-0.2-1.1-0.3-2.3-0.2-3.5s0.3-2.4,0.7-3.5s0.9-2.2,1.6-3.2l-0.4,1.2
			c0.1-6.7,0.2-13.3,0.3-20l0.4-20v-0.2V90c0.1-0.3,0.1-0.7,0.2-1.1c0-0.4,0.1-0.8,0.1-1.2c0-0.8,0-1.7-0.1-2.5
			c-0.2-1.7-0.5-3.4-1-5.1c-1-3.3-2.5-6.5-4.4-9.5s-3.9-5.9-6.4-8.5l-7.4-7.8l-0.1-0.1v-0.1l0.4-11.1l0.4,11.1l-0.1-0.3l7.9,7.4
			c1.4,1.2,2.5,2.6,3.7,4c1.1,1.4,2.3,2.8,3.3,4.4c2.1,3,3.8,6.3,5,9.9c0.6,1.8,1.1,3.6,1.4,5.5c0.2,0.9,0.2,1.9,0.3,2.8
			c0,0.5,0,1,0,1.5s0,1-0.2,1.6v-0.3l0.4,20c0.1,6.7,0.2,13.3,0.3,20v0.6l-0.4,0.6c-0.4,0.7-0.8,1.4-1,2.2s-0.4,1.5-0.4,2.3
			s0,1.6,0.2,2.4c0.1,0.4,0.2,0.8,0.3,1.2s0.3,0.8,0.4,1l-0.4-0.5c0.8,0.9,1.5,2.1,1.8,3.3s0.3,2.3,0.3,3.4c-0.2,2.1-0.8,4-1.6,5.8
			l-0.2,0.4l-0.2,0.4l-0.2,0.4c-0.1,0.3-0.2,0.5-0.3,0.8c-0.2,0.6-0.2,1.2-0.1,1.8c0,0.6,0.2,1.3,0.4,1.9c0.1,0.3,0.2,0.6,0.4,0.9
			c0.1,0.2,0.2,0.3,0.2,0.4c0.1,0.1,0.2,0.3,0.2,0.3l0.1,0.1v0.1c0.5,0.9,0.9,1.8,1.1,2.8c0.2,0.9,0.3,1.9,0.3,2.8
			c0,0.9-0.1,1.8-0.3,2.7c-0.1,0.4-0.2,0.9-0.4,1.3c-0.1,0.5-0.3,0.8-0.5,1.4l0.1-0.2c-0.2,0.5-0.3,1-0.4,1.6
			c-0.1,0.6-0.1,1.1,0,1.7c0.1,0.6,0.2,1.2,0.3,1.8c0.1,0.3,0.2,0.6,0.3,0.9c0.1,0.3,0.2,0.6,0.3,0.8l-0.2-0.4
			c0.6,0.9,1.2,1.8,1.5,2.9c0.4,1,0.6,2.2,0.7,3.3c0.1,1.1,0,2.3-0.3,3.4c-0.1,0.5-0.3,1.1-0.5,1.6c-0.1,0.3-0.2,0.5-0.3,0.8
			s-0.2,0.5-0.5,0.9l-0.2,0.3c-0.3,0.4-0.4,0.7-0.5,1.1c-0.1,0.4,0,1.1,0.2,1.7c0.2,0.7,0.5,1.4,0.9,2.1c0.2,0.4,0.4,0.7,0.6,1
			c0.2,0.3,0.5,0.7,0.7,0.9l0.6,0.8v1l0.1,16.6v2.9h-2.9l-33.8,0.1l-33.8-0.1h-2.9V216v-15.8v-0.8l0.4-0.7c0.3-0.6,0.6-1.1,0.8-1.7
			c0.2-0.6,0.4-1.2,0.5-1.7c0.1-0.6,0.1-1.2,0-1.8c0-0.3-0.1-0.6-0.2-0.8c0-0.1-0.1-0.3-0.1-0.4c0-0.1,0-0.1-0.1-0.2V192l0,0
			l0.4,0.6c-0.9-1.1-1.4-2.3-1.6-3.4c-0.2-1.1-0.2-2.1-0.1-3.1s0.2-1.9,0.5-2.8c0.2-0.9,0.5-1.7,0.8-2.6l0.1-0.3l0.2-0.3
			c0.7-0.9,1-1.8,1-2.6c0-0.4-0.1-0.8-0.3-1.3c-0.1-0.2-0.2-0.4-0.3-0.6l-0.2-0.3l0,0l0,0l0,0l-0.3-0.3c-0.7-0.8-1.3-1.9-1.6-2.9
			c-0.3-1.1-0.4-2.1-0.4-3.1s0.2-1.9,0.4-2.9c0.1-0.5,0.3-0.9,0.4-1.3c0.2-0.5,0.3-0.8,0.6-1.4l0.1-0.2l0.3-0.4
			c0.3-0.4,0.6-0.7,0.7-1.1c0.1-0.4,0.2-0.9,0.2-1.4s-0.1-1.1-0.3-1.7c-0.1-0.3-0.2-0.6-0.3-0.9c-0.1-0.3-0.3-0.6-0.4-0.8l0.2,0.3
			c-0.9-1.1-1.4-2.4-1.6-3.6c-0.2-1.2-0.2-2.3,0-3.3c0.1-1,0.3-2,0.6-2.9c0.3-1,0.6-1.8,1-2.8l0.1-0.3l0.2-0.3
			c0.5-0.6,0.9-1.4,1.2-2.3c0.3-0.9,0.3-2,0.3-3.1s-0.2-2.2-0.4-3.3c-0.2-1.1-0.5-2.3-0.9-3.2l-0.2-0.4v-0.4
			c0.1-10.5,0.4-21,0.6-31.5l0.1-7.9c0-1.3,0-2.6,0-4c0.1-1.4,0.1-2.7,0.4-4.1c0.4-2.7,1.1-5.4,2.1-7.9c0.5-1.3,1.2-2.5,1.9-3.6
			c0.8-1.2,1.6-2.2,2.7-3.3l-0.1,0.1L100.1,54l-0.1,0.2L100.4,42.7z"/>
	</g>
	<g>
		<path class="st1" d="M98.7,57c2.3-1.2,4.6-1.9,6.9-2.4c2.3-0.4,4.6-0.6,6.9-0.6c2.3,0,4.6,0.2,6.9,0.6c2.3,0.5,4.6,1.1,6.9,2.4
			c-2.3,1.3-4.6,1.9-6.9,2.4c-2.3,0.4-4.6,0.6-6.9,0.6c-2.3,0-4.6-0.2-6.9-0.6C103.3,58.8,101,58.2,98.7,57z"/>
	</g>
	<g>
		<path class="st1" d="M81.2,90.5c5.3-1.2,10.5-1.9,15.8-2.4c5.3-0.4,10.5-0.6,15.8-0.6s10.5,0.2,15.8,0.6
			c5.3,0.5,10.5,1.1,15.8,2.4c-5.3,1.3-10.5,1.9-15.8,2.4c-5.3,0.4-10.5,0.6-15.8,0.6s-10.5-0.2-15.8-0.6
			C91.7,92.4,86.4,91.8,81.2,90.5z"/>
	</g>
	<g>
		<path class="st1" d="M81.2,130.8c5.3-1.3,10.5-1.9,15.8-2.4s10.6-0.7,15.8-0.7c5.3,0,10.6,0.2,15.8,0.6c5.3,0.4,10.6,1.1,15.8,2.3
			c-5.3,1.3-10.5,1.9-15.8,2.4s-10.6,0.7-15.8,0.7c-5.3,0-10.6-0.2-15.8-0.6C91.8,132.6,86.5,132,81.2,130.8z"/>
	</g>
	<g>
		<path class="st1" d="M96.2,143.4c2.6-1.3,5.2-1.9,7.9-2.4c2.6-0.5,5.3-0.7,7.9-0.7c2.6,0,5.3,0.2,7.9,0.6c2.6,0.4,5.3,1.1,7.9,2.3
			c-2.6,1.3-5.2,1.9-7.9,2.4c-2.6,0.5-5.3,0.7-7.9,0.7c-2.6,0-5.3-0.2-7.9-0.6C101.5,145.2,98.8,144.6,96.2,143.4z"/>
	</g>
	<g>
		<path class="st1" d="M96.5,161.2c2.6-1.3,5.2-1.9,7.9-2.4c2.6-0.5,5.3-0.7,7.9-0.7c2.6,0,5.3,0.2,7.9,0.6c2.6,0.4,5.3,1.1,7.9,2.3
			c-2.6,1.3-5.2,1.9-7.9,2.4c-2.6,0.5-5.3,0.7-7.9,0.7c-2.6,0-5.3-0.2-7.9-0.6C101.7,163,99.1,162.4,96.5,161.2z"/>
	</g>
	<g>
		<path class="st1" d="M95.3,176.3c2.6-1.3,5.2-1.9,7.9-2.4c2.6-0.5,5.3-0.7,7.9-0.7c2.6,0,5.3,0.2,7.9,0.6c2.6,0.4,5.3,1.1,7.9,2.3
			c-2.6,1.3-5.2,1.9-7.9,2.4c-2.6,0.5-5.3,0.7-7.9,0.7c-2.6,0-5.3-0.2-7.9-0.6S98,177.6,95.3,176.3z"/>
	</g>
	<g>
		<path class="st1" d="M97,193c2.6-1.3,5.2-1.9,7.9-2.4c2.6-0.5,5.3-0.7,7.9-0.7c2.6,0,5.3,0.2,7.9,0.6c2.6,0.4,5.3,1.1,7.9,2.3
			c-2.6,1.3-5.2,1.9-7.9,2.4c-2.6,0.5-5.3,0.7-7.9,0.7c-2.6,0-5.3-0.2-7.9-0.6C102.3,194.8,99.7,194.2,97,193z"/>
	</g>
</g>
</svg>
