<?xml version="1.0" encoding="utf-8"?>
<!-- Generator: Adobe Illustrator 21.0.2, SVG Export Plug-In . SVG Version: 6.00 Build 0)  -->
<svg version="1.1" id="Layer_1" xmlns="http://www.w3.org/2000/svg" xmlns:xlink="http://www.w3.org/1999/xlink" x="0px" y="0px"
	 viewBox="0 0 243 242" style="enable-background:new 0 0 243 242;" xml:space="preserve">
<style type="text/css">
	.st0{fill:#D5EBF9;}
	.st1{fill:none;}
	.st2{fill:#224760;}
</style>
<g>
	<rect x="-0.5" y="-0.4" class="st0" width="243" height="243"/>
</g>
<g>
	<g>
		<path class="st1" d="M105.9,34.4"/>
	</g>
	<g>
		<path class="st2" d="M103.6,38l6.6-0.5l6.4-0.5c4.2-0.4,8.3-0.7,12.3-0.9l-2.2,1.7c0.1-1.2,0.2-2.6,0.2-3.8c0-1.3-0.2-2.5-0.5-3.6
			s-0.8-2-1.3-2.4c-0.5-0.5-1.1-0.6-1.9-0.6h0.3c-2.1,0.2-4.3,0.4-6.4,0.4c-2.1,0.1-4.3,0-6.4-0.1h-0.3c0.1,0,0,0,0,0h-0.1
			c-0.1,0-0.2,0-0.3,0c-0.2,0-0.4,0-0.6,0c-0.4,0.1-0.8,0.2-1.2,0.3c-0.7,0.3-1.5,0.9-2.1,2c-0.4,0.5-0.5,1.1-0.8,1.7
			c-0.2,0.6-0.4,1.3-0.6,2l-0.2,1.1c-0.1,0.3-0.2,0.8-0.2,1C104,36.4,103.7,37.1,103.6,38z M103.1,38.5c-0.3-0.6-0.7-1.4-1.1-2.3
			c-0.2-0.5-0.2-0.8-0.4-1.3l-0.3-1.2c-0.2-0.8-0.2-1.7-0.3-2.5c0-0.4,0-0.9,0.1-1.3c0-0.5,0.1-0.9,0.2-1.4c0.4-1.8,1.4-3.9,3.1-5.3
			c0.9-0.7,1.9-1.3,2.9-1.7c0.5-0.2,1.1-0.3,1.6-0.4c0.3-0.1,0.6-0.1,0.8-0.1c0.1,0,0.3,0,0.5,0s0.3,0,0.6,0h-0.3
			c2.1-0.2,4.3-0.2,6.4-0.1c2.1,0,4.3,0.2,6.4,0.4h0.3c1,0.2,2,0.5,3,1s1.9,1.2,2.5,2c1.4,1.6,2,3.5,2.3,5.1
			c0.3,1.7,0.3,3.3,0.2,4.8c-0.1,1.6-0.3,3-0.7,4.6l-0.5,1.8l-1.7-0.1c-4.5-0.3-8.9-0.6-13.2-0.9L103.1,38.5z"/>
	</g>
	<g>
		<path class="st2" d="M107,43.1l-0.3,21.1l-0.2,10.5l-0.1,5.3c-0.1,1.8-0.3,3.6-0.8,5.4s-1.1,3.6-2.2,5.1c-0.3,0.4-0.6,0.8-1,1.1
			c-0.4,0.4-0.6,0.6-1,0.9c-0.6,0.6-1.2,1.2-1.8,1.8c-2.4,2.5-4.5,5.2-6.3,8.1c-1.8,2.9-3.4,6-4.5,9.2c-0.6,1.6-0.9,3.2-1.3,4.9
			l-0.4,2.5c-0.1,0.8-0.1,1.7-0.2,2.5L87,123v1.3v2.6v5.3l0.1,10.5l0.1,21.1l0.2,42.2v0.4c0,0.1,0,0.4,0,0.5c0,0.2,0,0.4,0,0.7
			c0,0.4,0.1,0.9,0.2,1.3c0.2,0.8,0.6,1.5,1.1,2.1c0.5,0.5,1.1,1,1.9,1.3c0.4,0.2,0.9,0.2,1.3,0.4l1.4,0.2h-0.2l43.9-0.5h0.4h0.4
			c0.2,0,0.4,0,0.5,0c0.4,0,0.7-0.1,1.1-0.1c0.7-0.1,1.4-0.3,1.9-0.6c1.1-0.5,1.8-1.3,2.2-2.4c0.2-0.6,0.3-1.2,0.4-1.9
			c0.1-0.3,0-0.8,0-1.3v-1.5l-0.1-5.8c-0.1-7.8-0.2-15.5-0.2-23.2c-0.1-15.5,0-31,0.2-46.5l0.1-5.8v-2.9c0-0.5,0-0.9,0-1.3
			c0-0.4,0-0.9,0-1.3c-0.2-3.6-0.8-7.2-2-10.4c-0.1-0.4-0.3-0.8-0.5-1.2s-0.3-0.8-0.6-1.1l-0.6-1.1l-0.7-1c-0.2-0.4-0.5-0.6-0.8-0.9
			c-0.3-0.3-0.5-0.6-0.8-0.9l-0.9-0.8l-0.2-0.2l-0.3-0.3l-0.6-0.5c-1.6-1.4-3.1-2.8-4.4-4.4c-1.4-1.6-2.6-3.3-3.6-5.1
			c-1-1.9-1.9-3.8-2.3-6c-0.1-0.5-0.2-1.1-0.3-1.6c0-0.5-0.2-1.1-0.1-1.6v-1.6v-1.5l0.4-11.6c0.3-7.7,0.7-15.5,1.1-23.2h0.7
			c0.5,7.8,0.8,15.5,1.1,23.3l0.4,11.6l0.1,1.4l0.1,1.3c0,0.4,0.1,0.8,0.2,1.2c0.1,0.4,0.1,0.8,0.3,1.2c0.4,1.6,1.2,3.2,2.2,4.7
			c1.9,3,4.5,5.6,7.4,7.7l0.5,0.4l0.2,0.2l0.3,0.2l1.4,1c0.5,0.3,0.8,0.8,1.2,1.2c0.4,0.4,0.8,0.8,1.1,1.3l1,1.3
			c0.3,0.5,0.6,0.9,0.9,1.4c0.3,0.5,0.6,0.9,0.8,1.4s0.5,1,0.7,1.5c1.7,4,2.6,8.1,2.9,12.2c0,0.5,0.1,1,0.1,1.6c0,0.5,0,1.1,0,1.6
			v2.9l0.1,5.8c0.3,15.5,0.4,31,0.2,46.5c-0.1,7.7-0.1,15.5-0.2,23.2l-0.1,5.8v1.5c0,0.5,0,0.9-0.1,1.6c-0.1,1.3-0.4,2.5-0.8,3.8
			c-0.9,2.5-3.2,4.8-5.6,5.8c-1.2,0.5-2.4,0.8-3.6,1c-0.6,0.1-1.2,0.1-1.8,0.1c-0.3,0-0.6,0-0.9,0c-0.3,0-0.6,0-1-0.1h0.4L93,217.9
			h-0.2h-0.1c-0.7-0.1-1.4-0.2-2.1-0.3c-0.7-0.2-1.4-0.4-2.1-0.7c-1.4-0.5-2.7-1.5-3.8-2.7c-1.1-1.2-1.8-2.7-2.1-4.1
			c-0.2-0.7-0.3-1.5-0.3-2.2c0-0.4,0-0.7,0-1.1c0-0.4,0-0.7,0.1-1.2v0.4l0.6-42.2l0.3-21.1l0.2-10.5l0.1-5.3v-2.6V123l0.1-1.4
			c0.1-0.9,0.1-1.8,0.2-2.7l0.5-2.7c0.4-1.8,0.9-3.5,1.6-5.2c1.3-3.4,3-6.6,5-9.6s4.3-5.8,6.8-8.3c0.6-0.6,1.3-1.3,2-1.9
			c0.3-0.3,0.7-0.6,1-0.9s0.5-0.5,0.8-0.8c1-1.2,1.6-2.8,2-4.4c0.5-1.6,0.7-3.3,0.9-5l0.2-5.2l0.5-10.5l1-21.1L107,43.1z"/>
	</g>
	<g>
		<path class="st2" d="M84.2,128.2c5-0.6,10-1,15-1.4l7.5-0.6l7.5-0.5c2.5-0.1,5-0.4,7.5-0.7c2.5-0.2,5-0.2,7.5,0s5,0.5,7.5,1
			s5,1.1,7.5,2.1v0.7c-2.5,1-5,1.6-7.5,2.1s-5,0.8-7.5,1s-5,0.2-7.5,0s-5-0.5-7.5-0.7l-7.5-0.5l-7.5-0.6c-5-0.4-10-0.8-15-1.4V128.2
			z"/>
	</g>
	<g>
		<path class="st2" d="M88.4,181.1c4.9-0.6,9.7-1,14.6-1.4l7.3-0.6l7.3-0.5c2.4-0.1,4.9-0.4,7.3-0.7c2.4-0.2,4.9-0.2,7.3,0
			c2.4,0.2,4.9,0.5,7.3,1c2.4,0.5,4.9,1.1,7.3,2.1v0.7c-2.4,1-4.9,1.6-7.3,2.1c-2.4,0.5-4.9,0.8-7.3,1c-2.4,0.2-4.9,0.2-7.3,0
			c-2.4-0.2-4.9-0.5-7.3-0.7l-7.3-0.5L103,183c-4.9-0.4-9.7-0.8-14.6-1.4V181.1z"/>
	</g>
	<g>
		<path class="st2" d="M88.7,208.1c4.7-1.1,9.4-1.9,14.2-2.6c2.4-0.3,4.8-0.6,7.2-0.9c2.4-0.2,4.8-0.5,7.2-0.6
			c1.2-0.1,2.4-0.2,3.6-0.3l3.6-0.3c2.4-0.2,4.9-0.1,7.3,0.2c2.4,0.4,4.8,0.8,7.2,1.6c2.4,0.7,4.7,1.7,6.9,3l-0.1,0.7
			c-5,1.3-9.7,1.5-14.4,1.7c-1.2,0-2.3,0-3.5,0s-2.3-0.2-3.5-0.3l-3.5-0.4c-1.2-0.1-2.4-0.2-3.5-0.3c-2.4-0.1-4.7-0.3-7.1-0.3
			c-2.4-0.1-4.7-0.2-7.1-0.2c-4.8-0.1-9.5-0.2-14.3-0.2L88.7,208.1z"/>
	</g>
</g>
</svg>
