<svg xmlns="http://www.w3.org/2000/svg" id="Layer_1" data-name="Layer 1" viewBox="0 0 788.8 282.72">
    <defs>
        <style>
            .cls-1{fill:#003a70}.cls-2{fill:none;stroke:#003a70;stroke-miterlimit:10;stroke-width:3.75px}
        </style>
    </defs>
    <path d="M291.71 171.12a26 26 0 0 1-18.5 7.73c-17.12 0-26-12.14-26.11-26.06-.15-13.76 8.7-26.64 26.11-26.64a25.92 25.92 0 0 1 18.5 7.73l-2.71 2.35a22.07 22.07 0 0 0-15.82-6.55c-14.8 0-22.41 10.6-22.34 23 .15 12.07 7.69 22.52 22.34 22.52a22.54 22.54 0 0 0 15.89-6.55zm64.78-18.55c-.08 13.55-8.56 26.58-25.61 26.58s-25.61-13.15-25.61-26.73c0-13.83 8.49-26.49 25.61-26.49s25.68 12.73 25.61 26.64zm-47.37-.07c.07 11.63 7.32 23 21.76 23s21.83-11.33 21.83-23c0-11.93-7.25-22.89-21.83-22.89S309 140.35 309.12 152.5zm64.99-25.76l34.17 42.62v-42.62h3.84v51.52h-1.52l-34.24-42.54v42.54h-3.92v-51.52zm89.66 9.93c-3.7-6-9.65-6.92-15.38-7-5.95 0-15.38 2.21-15.38 10.45 0 6.55 7 8.1 15.52 9.72 9.8 1.91 20 3.68 20 14.79-.07 11.63-11.61 14.43-20.09 14.43-7.91 0-16.9-3.31-20.82-11.19l3.48-1.76c3.12 6.25 11.1 9.34 17.34 9.34s16.17-1.76 16.17-10.89c.08-7.73-8.34-9.42-16.68-11-9.29-1.84-18.79-3.75-18.79-13.25-.22-10.89 11-14.28 19.3-14.28 7.25 0 13.56 1.18 18.57 8.76zm58.46-9.93v32c0 26.94-38.88 27-38.88 0v-32h3.85v32c0 22.15 31.19 22.08 31.19 0v-32zm21.18 0v47.77H572v3.75h-32.5v-51.52zm49.47 3.6h-18.35v-3.53h40.62v3.53H596.8v47.92h-3.92zm36.34 47.92v-51.52h3.85v51.52zm23.36-51.52l34.17 42.62v-42.62h3.84v51.52h-1.52l-34.24-42.54v42.54h-3.92v-51.52zm95.9 9.49a23.41 23.41 0 0 0-16.33-6.62c-14.87 0-22.48 11-22.41 23 0 12.15 7.62 22.6 22.41 22.6a22.71 22.71 0 0 0 15.46-6v-14.43h-17.7v-3.46h21.4v19.29c-5.3 5.37-11.61 8.31-19.16 8.31-17.26 0-26.18-12.21-26.18-26.27-.07-16.12 10.73-26.65 26.18-26.65a26.28 26.28 0 0 1 18.58 7.73zM348.65 72.42c-3.7-6-9.65-6.92-15.38-7-5.95 0-15.38 2.21-15.38 10.45 0 6.55 7 8.1 15.53 9.72 9.79 1.91 19.95 3.68 19.95 14.79-.08 11.63-11.61 14.43-20.1 14.43-7.91 0-16.9-3.31-20.82-11.19l3.49-1.76c3.11 6.25 11.09 9.34 17.33 9.34s16.18-1.76 16.18-10.89c.07-7.73-8.34-9.42-16.69-11C323.48 87.44 314 85.53 314 76c-.22-10.89 10.95-14.28 19.29-14.28 7.26 0 13.57 1.18 18.57 8.76zm34.46-6.33h-18.36v-3.53h40.62v3.53H387V114h-3.91zM460.36 114h-5.15l-17.56-19.5H423.8V114h-3.92V62.49h22.34c11 0 16.61 8 16.69 16 .07 8.39-5.37 15.75-16.47 15.75zM423.8 90.75h18c8.85 0 12.77-5.08 12.84-12.29.07-6-4-12.29-12.41-12.29H423.8zM514.33 114l-5.59-12.66h-30.32L472.9 114h-4.2l22.78-51.52h4.28L518.53 114zm-7.11-16.34l-13.64-31.35-13.64 31.36zm30.97-31.57h-18.35v-3.53h40.62v3.53h-18.35V114h-3.92zm40.55 20.17h29.74v3.61h-29.74v20.31h32.06V114h-35.91V62.49h35v3.75h-31.15zM666.44 72a23.41 23.41 0 0 0-16.33-6.62c-14.87 0-22.48 11-22.41 23 0 12.15 7.62 22.6 22.41 22.6a22.71 22.71 0 0 0 15.46-6V90.53h-17.7v-3.46h21.4v19.29c-5.3 5.37-11.61 8.31-19.16 8.31-17.26 0-26.18-12.21-26.18-26.27-.07-16.12 10.73-26.65 26.18-26.65a26.28 26.28 0 0 1 18.58 7.73zM687 114V62.49h3.85V114zm63.94-7.13a26 26 0 0 1-18.49 7.73c-17.13 0-26.05-12.14-26.12-26.06-.14-13.76 8.7-26.64 26.12-26.64a25.91 25.91 0 0 1 18.49 7.73L748.26 72a22 22 0 0 0-15.81-6.55c-14.8 0-22.42 10.6-22.35 23 .15 12.07 7.69 22.52 22.35 22.52a22.52 22.52 0 0 0 15.88-6.55zM120.3 53.89h29.06v178.67H120.3z" class="cls-1"/>
    <path d="M26.91 234.06v24.58h255v-64.02h-27.2m27.2-85.84V25.91h-255v143.75" class="cls-2"/>
    <path d="M19.41 206.64v1.74c0 1 .24 1.75.54 1.75h6.32v.76c0 .58.78 1 1.73 1s1.73-.46 1.73-1v-23.5a.72.72 0 0 0-.24-.51 1.5 1.5 0 0 0 .47-.27c.5-.45.54-1.3 1.16-1.63s1.59 0 2.25-.45c1-.73 1.06-3.09 1.39-4.19.86-2.84-1.07-4.26-3.63-4.74a16.89 16.89 0 0 0-6.26 0c-2.55.48-4.49 1.9-3.63 4.74.34 1.1.38 3.46 1.4 4.19.66.47 1.56.08 2.24.45s.67 1.22 1.2 1.67a1.27 1.27 0 0 0 .42.24.75.75 0 0 0-.23.5v17.5H20c-.35 0-.59.78-.59 1.75zm7.32-21.83c-.35-.31-.37-.88-.8-1.12s-1.05 0-1.48-.29c-.68-.49-.71-2.05-.93-2.79-.57-1.88.71-2.81 2.41-3.13a10.73 10.73 0 0 1 4.15 0c1.69.32 3 1.25 2.41 3.13-.23.74-.26 2.3-.93 2.79-.44.31-1 0-1.49.29s-.44.78-.77 1.08a1.64 1.64 0 0 1-1.17.25c-.47-.02-1.01.12-1.4-.21z" class="cls-1"/>
    <circle cx="26.98" cy="224.22" r="5.65" class="cls-1"/>
    <path d="M103.2 117.66H91.78V51.78H56.7v180.99h35.08v-67.74h11.42v-47.37z" class="cls-1"/>
    <path fill="none" stroke="#003a70" stroke-miterlimit="10" stroke-width="4.44" d="M120.3 54.1H194q15.94 0 24.67 5.85a28.49 28.49 0 0 1 11.76 16.4q3 10.58 3 27 0 15-4.81 23.39t-16.7 11.69q9.87 1.64 14.3 8t4.43 17.22l-.51 66.66h-42.5v-68.94q0-7.38-3.54-9.44c-2.36-1.36-6.67-2.05-12.9-2.05h-4.74m15.36-30.56q9.12 0 9.11-16a52.94 52.94 0 0 0-.76-10.46 7.33 7.33 0 0 0-2.78-4.86 10.66 10.66 0 0 0-5.82-1.33h-10.12v32.61z"/>
    <path d="M114.23 51.78v180.99" class="cls-2"/>
    <path d="M476.19 256.87a6.45 6.45 0 0 1-4.6 1.92 6.53 6.53 0 0 1 0-13.06 6.45 6.45 0 0 1 4.6 1.92l-.66.58a5.55 5.55 0 0 0-3.94-1.62 5.64 5.64 0 0 0 0 11.27 5.61 5.61 0 0 0 4-1.63zm14.5-4.59c0 3.35-2.13 6.58-6.38 6.58s-6.38-3.25-6.38-6.62 2.12-6.56 6.38-6.56 6.39 3.15 6.38 6.6zm-11.8 0c0 2.88 1.82 5.69 5.42 5.69s5.44-2.81 5.44-5.69-1.81-5.67-5.44-5.67-5.44 2.64-5.42 5.65zM504 247.3l-4.84 7.48h-.32L494 247.3v11.34h-1v-12.76h1.16l4.84 7.44 4.79-7.44H505v12.76h-1zm4.77 6.93v4.41h-1v-12.76h5.55c5.49 0 5.49 8.35 0 8.35zm0-7.44v6.54h4.57c4.21 0 4.21-6.54 0-6.54zm20.94 11.85h-1.28l-4.38-4.83h-3.45v4.83h-1v-12.76h5.56a3.93 3.93 0 0 1 4.16 4 3.75 3.75 0 0 1-4.1 3.9zm-9.11-5.76h4.48a2.84 2.84 0 0 0 3.2-3 2.92 2.92 0 0 0-3.09-3h-4.59zm11.7-1.11h7.4v.89h-7.4v5h8v.95h-8.94v-12.73h8.73v.93h-7.79zm19.19 6.87v-5.8h-8.06v5.8h-1v-12.76h1V252h8.06v-6.07h1v12.76zm4.72-6.87h7.41v.89h-7.41v5h8v.95h-9v-12.73H564v.93h-7.77zm10.95-5.89l8.51 10.56v-10.56h1v12.76h-.38l-8.53-10.54v10.54h-1v-12.76zm20.69 2.46c-.92-1.5-2.4-1.71-3.83-1.73s-3.83.54-3.83 2.59c0 1.62 1.74 2 3.87 2.4 2.44.48 5 .91 5 3.67s-2.89 3.57-5 3.57a5.66 5.66 0 0 1-5.18-2.77l.86-.44A5 5 0 0 0 584 258c1.56 0 4-.44 4-2.7 0-1.92-2.08-2.33-4.15-2.74-2.32-.45-4.68-.93-4.68-3.28-.06-2.7 2.73-3.53 4.8-3.53 1.81 0 3.38.29 4.63 2.17zm3.26 10.3v-12.76h1v12.76zm14.24-12.76l-5.21 12.8h-1l-5.21-12.8h1.05l4.68 11.67 4.68-11.67zm2.65 5.89h7.41v.89H608v5h8v.95h-9v-12.73h8.73v.93H608zm25.82 7.81h-2.37v-5.68h-6.22v5.68h-2.38v-14h2.38v5.91h6.22v-5.91h2.37zm13.01-.21v.18H644l-3.68-4.69H638v4.69h-2.38V245.5h6a4.31 4.31 0 0 1 3.35 1.37 4.74 4.74 0 0 1 1.21 3.28 5.18 5.18 0 0 1-.76 2.82 3.67 3.67 0 0 1-2.44 1.59zM641.64 248H638v4.49h3.63a2 2 0 0 0 1.62-.66 2.4 2.4 0 0 0 .55-1.59 2.33 2.33 0 0 0-.56-1.58 2 2 0 0 0-1.6-.66zm19.16.34c-.92-1.5-2.4-1.71-3.83-1.73s-3.83.54-3.83 2.59c0 1.62 1.73 2 3.86 2.4 2.44.48 5 .91 5 3.67s-2.89 3.57-5 3.57a5.69 5.69 0 0 1-5.19-2.77l.87-.44A5 5 0 0 0 657 258c1.55 0 4-.44 4-2.7 0-1.92-2.08-2.33-4.16-2.74-2.31-.45-4.68-.93-4.68-3.28 0-2.7 2.73-3.53 4.81-3.53 1.81 0 3.38.29 4.62 2.17zm15.45 3.94c0 3.35-2.13 6.58-6.38 6.58s-6.38-3.25-6.38-6.62 2.12-6.56 6.38-6.56 6.4 3.15 6.38 6.6zm-11.8 0c0 2.88 1.83 5.69 5.42 5.69s5.44-2.81 5.44-5.69-1.81-5.67-5.44-5.67-5.44 2.64-5.42 5.65zm15.09-6.4v11.83h7.12v.93h-8.09v-12.76zm17.91 0v7.93c0 6.67-9.68 6.69-9.68 0v-7.93h1v7.93a3.89 3.89 0 1 0 7.76 0v-7.93zm6.26.89h-4.57v-.87h10.11v.87h-4.57v11.87h-1zm7.41 11.87v-12.76h1v12.76zm16.33-6.36c0 3.35-2.13 6.58-6.37 6.58s-6.38-3.25-6.38-6.62 2.11-6.56 6.38-6.56 6.39 3.15 6.37 6.6zm-11.79 0c0 2.88 1.82 5.69 5.42 5.69s5.43-2.81 5.43-5.69-1.8-5.67-5.43-5.67-5.44 2.64-5.42 5.65zm14.54-6.4l8.51 10.56v-10.56h1v12.76h-.38l-8.52-10.54v10.54h-1v-12.76zm20.7 2.46c-.93-1.5-2.41-1.71-3.83-1.73s-3.83.54-3.83 2.59c0 1.62 1.73 2 3.86 2.4 2.44.48 5 .91 5 3.67s-2.89 3.57-5 3.57a5.69 5.69 0 0 1-5.19-2.77l.87-.44a4.93 4.93 0 0 0 4.32 2.32c1.55 0 4-.44 4-2.7 0-1.92-2.07-2.33-4.15-2.74-2.31-.45-4.68-.93-4.68-3.28-.06-2.7 2.73-3.53 4.81-3.53 1.8 0 3.37.29 4.62 2.17z" class="cls-1"/>
</svg>
